<svg xmlns="http://www.w3.org/2000/svg" xmlns:xlink="http://www.w3.org/1999/xlink" width="189" zoomAndPan="magnify" viewBox="0 0 141.75 141.750002" height="189" preserveAspectRatio="xMidYMid meet" version="1.0"><defs><g/><clipPath id="697f22fd46"><path d="M 30 0.773438 L 47 0.773438 L 47 10 L 30 10 Z M 30 0.773438 " clip-rule="nonzero"/></clipPath><clipPath id="e011e058ee"><path d="M 42 9 L 54.90625 9 L 54.90625 29 L 42 29 Z M 42 9 " clip-rule="nonzero"/></clipPath><clipPath id="d962a883d2"><path d="M 22.710938 9 L 36 9 L 36 29 L 22.710938 29 Z M 22.710938 9 " clip-rule="nonzero"/></clipPath><clipPath id="eda533bb47"><path d="M 31 28 L 35 28 L 35 29.976562 L 31 29.976562 Z M 31 28 " clip-rule="nonzero"/></clipPath><clipPath id="24106ce3fa"><path d="M 42 28 L 46 28 L 46 29.976562 L 42 29.976562 Z M 42 28 " clip-rule="nonzero"/></clipPath><clipPath id="5bc4eeaa64"><rect x="0" width="79" y="0" height="49"/></clipPath></defs><g transform="matrix(1, 0, 0, 1, 32, 46)"><g clip-path="url(#5bc4eeaa64)"><g clip-path="url(#697f22fd46)"><path fill="#042f69" d="M 30.96875 6.8125 C 31.253906 7.03125 31.605469 7.058594 32.023438 6.898438 C 32.050781 6.886719 32.082031 6.890625 32.105469 6.910156 C 33.253906 7.886719 34.574219 8.21875 36.066406 7.90625 C 36.382812 7.839844 36.691406 7.734375 36.984375 7.59375 C 37.265625 7.460938 37.523438 7.511719 37.765625 7.746094 C 37.796875 7.777344 37.902344 7.855469 38.078125 7.980469 C 38.214844 8.074219 38.304688 8.164062 38.351562 8.253906 C 38.449219 8.449219 38.417969 8.621094 38.257812 8.773438 C 38.257812 8.773438 38.167969 8.828125 37.988281 8.9375 C 37.871094 9.011719 37.78125 9.113281 37.714844 9.238281 C 37.664062 9.335938 37.679688 9.421875 37.753906 9.496094 C 37.863281 9.605469 38 9.664062 38.164062 9.671875 C 38.546875 9.695312 38.925781 9.6875 39.304688 9.652344 C 39.457031 9.640625 39.570312 9.605469 39.652344 9.546875 C 39.8125 9.429688 39.828125 9.285156 39.699219 9.117188 C 39.65625 9.0625 39.582031 9.003906 39.46875 8.9375 C 39.375 8.882812 39.292969 8.828125 39.226562 8.769531 C 39.058594 8.625 39.03125 8.449219 39.136719 8.246094 C 39.210938 8.105469 39.316406 8.007812 39.445312 7.945312 C 39.59375 7.882812 39.714844 7.796875 39.8125 7.699219 C 40.003906 7.503906 40.226562 7.464844 40.480469 7.582031 C 41.507812 8.046875 42.570312 8.148438 43.675781 7.882812 C 44.304688 7.734375 44.871094 7.425781 45.375 6.957031 C 45.402344 6.929688 45.445312 6.921875 45.484375 6.933594 C 45.828125 7.066406 46.15625 7.035156 46.464844 6.839844 C 46.632812 6.730469 46.761719 6.582031 46.84375 6.390625 C 46.914062 6.222656 46.941406 6.035156 46.917969 5.828125 C 46.867188 5.34375 46.628906 5.042969 46.203125 4.925781 C 45.828125 4.824219 45.5 4.882812 45.222656 5.105469 C 44.90625 5.355469 44.777344 5.75 44.835938 6.289062 C 44.839844 6.335938 44.820312 6.386719 44.78125 6.417969 C 44.195312 6.914062 43.546875 7.113281 42.828125 7.019531 C 42.640625 6.992188 42.386719 6.914062 42.066406 6.773438 C 41.703125 6.617188 41.335938 6.476562 40.960938 6.347656 C 40.742188 6.269531 40.558594 6.222656 40.40625 6.207031 C 40.222656 6.1875 40.03125 6.183594 39.828125 6.199219 C 39.804688 6.203125 39.777344 6.195312 39.757812 6.179688 C 39.679688 6.121094 39.605469 6.0625 39.53125 6.007812 C 39.433594 5.933594 39.367188 5.867188 39.324219 5.8125 C 39.148438 5.570312 39.1875 5.335938 39.4375 5.105469 C 39.496094 5.054688 39.644531 4.945312 39.886719 4.777344 C 40.074219 4.648438 40.214844 4.527344 40.308594 4.417969 C 40.707031 3.960938 40.878906 3.4375 40.828125 2.851562 C 40.796875 2.449219 40.675781 2.089844 40.472656 1.765625 C 40.25 1.417969 39.949219 1.160156 39.566406 0.992188 C 39.167969 0.816406 38.765625 0.773438 38.351562 0.863281 C 37.972656 0.945312 37.636719 1.117188 37.34375 1.386719 C 37.042969 1.664062 36.839844 2.003906 36.734375 2.40625 C 36.46875 3.441406 36.792969 4.242188 37.699219 4.804688 C 37.828125 4.886719 37.945312 4.976562 38.054688 5.082031 C 38.300781 5.316406 38.335938 5.554688 38.167969 5.800781 C 38.132812 5.851562 38.066406 5.917969 37.96875 6 C 37.898438 6.058594 37.828125 6.121094 37.757812 6.1875 C 37.742188 6.203125 37.714844 6.207031 37.695312 6.203125 C 37.535156 6.160156 37.375 6.148438 37.214844 6.171875 C 36.886719 6.222656 36.570312 6.3125 36.265625 6.445312 C 35.980469 6.570312 35.691406 6.6875 35.398438 6.800781 C 34.40625 7.179688 33.492188 7.03125 32.65625 6.355469 C 32.625 6.332031 32.609375 6.289062 32.613281 6.25 C 32.671875 5.835938 32.589844 5.496094 32.371094 5.238281 C 32.214844 5.054688 32.019531 4.9375 31.78125 4.878906 C 31.527344 4.820312 31.285156 4.863281 31.054688 5.007812 C 30.660156 5.257812 30.488281 5.585938 30.53125 5.996094 C 30.570312 6.347656 30.714844 6.617188 30.96875 6.8125 Z M 38.269531 4.222656 C 38.179688 4.175781 38.074219 4.097656 37.957031 3.996094 C 37.695312 3.777344 37.550781 3.507812 37.515625 3.1875 C 37.464844 2.664062 37.648438 2.257812 38.070312 1.964844 C 38.554688 1.628906 39.027344 1.628906 39.484375 1.96875 C 39.644531 2.085938 39.769531 2.238281 39.863281 2.421875 C 39.945312 2.59375 39.992188 2.777344 40 2.980469 C 40.015625 3.527344 39.761719 3.9375 39.230469 4.210938 C 39.1875 4.230469 39.140625 4.222656 39.105469 4.191406 C 38.832031 3.941406 38.574219 3.949219 38.328125 4.214844 C 38.3125 4.230469 38.289062 4.234375 38.269531 4.222656 Z M 38.269531 4.222656 " fill-opacity="1" fill-rule="nonzero"/></g><path fill="#042f69" d="M 45.855469 7.148438 L 45.578125 7.128906 C 45.503906 7.125 45.441406 7.160156 45.425781 7.21875 L 42.25 18.007812 C 42.242188 18.035156 42.222656 18.054688 42.203125 18.054688 L 41.964844 18.0625 C 41.960938 18.066406 41.953125 18.066406 41.949219 18.066406 C 41.914062 18.078125 41.894531 18.109375 41.902344 18.136719 C 42.210938 19.101562 42.757812 19.84375 43.550781 20.371094 C 43.976562 20.65625 44.445312 20.851562 44.953125 20.953125 C 45.785156 21.125 46.585938 21.035156 47.351562 20.679688 C 47.820312 20.464844 48.230469 20.167969 48.585938 19.796875 C 49.035156 19.328125 49.371094 18.769531 49.585938 18.125 C 49.589844 18.121094 49.589844 18.117188 49.589844 18.113281 C 49.589844 18.085938 49.570312 18.066406 49.546875 18.066406 L 49.269531 18.066406 C 49.230469 18.066406 49.199219 18.042969 49.1875 18.007812 L 45.964844 7.21875 C 45.953125 7.179688 45.910156 7.152344 45.855469 7.148438 Z M 48.871094 18.066406 C 48.867188 18.066406 48.867188 18.066406 48.863281 18.066406 L 42.570312 18.066406 C 42.550781 18.066406 42.539062 18.054688 42.539062 18.035156 C 42.539062 18.035156 42.539062 18.03125 42.539062 18.027344 L 45.644531 7.449219 C 45.671875 7.347656 45.703125 7.347656 45.734375 7.449219 L 48.890625 18.03125 C 48.894531 18.046875 48.886719 18.0625 48.871094 18.066406 Z M 48.871094 18.066406 " fill-opacity="1" fill-rule="nonzero"/><path fill="#042f69" d="M 29.542969 20.339844 C 29.976562 20.628906 30.441406 20.824219 30.945312 20.933594 C 31.59375 21.074219 32.234375 21.050781 32.867188 20.855469 C 33.359375 20.707031 33.808594 20.46875 34.214844 20.148438 C 34.859375 19.636719 35.3125 18.964844 35.578125 18.132812 C 35.582031 18.128906 35.582031 18.121094 35.582031 18.117188 C 35.582031 18.089844 35.558594 18.066406 35.53125 18.066406 L 35.304688 18.066406 C 35.285156 18.066406 35.265625 18.050781 35.257812 18.027344 L 32.074219 7.246094 C 32.066406 7.21875 32.035156 7.203125 32.007812 7.207031 L 31.539062 7.285156 C 31.515625 7.289062 31.496094 7.304688 31.488281 7.324219 L 28.328125 18.027344 C 28.324219 18.050781 28.304688 18.0625 28.285156 18.0625 L 27.9375 18.066406 C 27.933594 18.066406 27.933594 18.066406 27.929688 18.066406 C 27.910156 18.074219 27.902344 18.089844 27.90625 18.109375 C 28.214844 19.074219 28.761719 19.816406 29.542969 20.339844 Z M 28.628906 18.015625 C 29.304688 15.753906 29.972656 13.507812 30.628906 11.273438 C 30.996094 10.027344 31.363281 8.769531 31.726562 7.507812 C 31.765625 7.375 31.800781 7.375 31.839844 7.507812 L 34.953125 18.019531 C 34.957031 18.039062 34.949219 18.058594 34.929688 18.066406 C 34.925781 18.066406 34.921875 18.066406 34.917969 18.066406 L 28.664062 18.066406 C 28.644531 18.066406 28.625 18.050781 28.625 18.027344 C 28.625 18.023438 28.625 18.019531 28.628906 18.015625 Z M 28.628906 18.015625 " fill-opacity="1" fill-rule="nonzero"/><path fill="#042f69" d="M 25.703125 12.390625 C 25.703125 12.410156 25.710938 12.414062 25.726562 12.402344 C 25.808594 12.347656 25.894531 12.300781 25.984375 12.253906 C 26.105469 12.195312 26.191406 12.144531 26.242188 12.109375 C 26.71875 11.78125 27.035156 11.355469 27.191406 10.839844 C 27.40625 10.148438 27.476562 9.4375 27.402344 8.714844 C 27.402344 8.707031 27.398438 8.699219 27.394531 8.691406 C 27.378906 8.671875 27.351562 8.667969 27.332031 8.683594 C 27.175781 8.792969 27.03125 8.914062 26.898438 9.050781 C 26.8125 9.140625 26.6875 9.28125 26.519531 9.476562 C 26.15625 9.902344 25.910156 10.332031 25.78125 10.765625 C 25.679688 11.113281 25.640625 11.390625 25.664062 11.605469 C 25.6875 11.851562 25.703125 12.113281 25.703125 12.390625 Z M 25.703125 12.390625 " fill-opacity="1" fill-rule="nonzero"/><path fill="#042f69" d="M 51.035156 11.914062 C 51.269531 12.117188 51.523438 12.28125 51.804688 12.40625 C 51.828125 12.417969 51.835938 12.410156 51.828125 12.386719 C 51.804688 12.277344 51.804688 12.171875 51.824219 12.066406 C 51.917969 11.546875 51.863281 11.046875 51.65625 10.5625 C 51.359375 9.871094 50.898438 9.261719 50.28125 8.734375 C 50.191406 8.65625 50.140625 8.675781 50.125 8.792969 C 50.046875 9.421875 50.105469 10.074219 50.292969 10.746094 C 50.425781 11.210938 50.671875 11.601562 51.035156 11.914062 Z M 51.035156 11.914062 " fill-opacity="1" fill-rule="nonzero"/><g clip-path="url(#e011e058ee)"><path fill="#042f69" d="M 54.683594 16.746094 C 53.980469 17.019531 53.394531 17.449219 52.925781 18.039062 C 52.742188 18.265625 52.609375 18.496094 52.53125 18.726562 C 52.445312 18.976562 52.398438 19.242188 52.394531 19.515625 C 52.394531 19.542969 52.386719 19.566406 52.371094 19.585938 C 52.253906 19.730469 52.085938 19.859375 51.867188 19.964844 C 51.835938 19.980469 51.824219 19.972656 51.835938 19.933594 C 52.113281 18.996094 52.304688 18.058594 52.417969 17.117188 C 52.421875 17.089844 52.429688 17.070312 52.449219 17.050781 C 52.671875 16.839844 52.808594 16.691406 52.863281 16.601562 C 52.929688 16.484375 53.050781 16.386719 53.234375 16.304688 C 53.542969 16.164062 53.792969 15.953125 53.992188 15.671875 C 54.148438 15.453125 54.277344 15.15625 54.371094 14.792969 C 54.53125 14.1875 54.578125 13.554688 54.515625 12.902344 C 54.511719 12.839844 54.480469 12.824219 54.429688 12.867188 C 53.871094 13.304688 53.421875 13.84375 53.085938 14.488281 C 52.8125 15 52.722656 15.539062 52.808594 16.109375 C 52.828125 16.242188 52.820312 16.347656 52.777344 16.425781 C 52.722656 16.53125 52.632812 16.617188 52.519531 16.675781 C 52.484375 16.695312 52.46875 16.683594 52.472656 16.648438 C 52.523438 15.738281 52.523438 14.839844 52.472656 13.953125 C 52.46875 13.894531 52.484375 13.839844 52.507812 13.789062 C 52.675781 13.476562 52.871094 13.242188 53.09375 13.085938 C 53.347656 12.910156 53.527344 12.675781 53.636719 12.386719 C 53.769531 12.03125 53.832031 11.660156 53.816406 11.277344 C 53.796875 10.726562 53.691406 10.191406 53.5 9.667969 C 53.476562 9.609375 53.445312 9.605469 53.40625 9.65625 C 52.921875 10.265625 52.613281 10.96875 52.472656 11.757812 C 52.414062 12.113281 52.445312 12.480469 52.574219 12.867188 C 52.578125 12.867188 52.589844 12.902344 52.621094 12.96875 C 52.691406 13.140625 52.636719 13.304688 52.457031 13.460938 C 52.4375 13.476562 52.425781 13.472656 52.421875 13.445312 L 52.296875 12.53125 C 52.292969 12.496094 52.261719 12.472656 52.226562 12.46875 L 52 12.46875 C 51.996094 12.46875 51.992188 12.46875 51.992188 12.46875 C 51.980469 12.476562 51.972656 12.492188 51.980469 12.503906 C 52.007812 12.566406 52.027344 12.628906 52.039062 12.695312 C 52.207031 13.757812 52.261719 14.851562 52.203125 15.96875 C 52.203125 16.003906 52.183594 16.015625 52.152344 15.992188 C 51.921875 15.828125 51.820312 15.640625 51.847656 15.429688 C 51.859375 15.328125 51.867188 15.277344 51.867188 15.273438 C 51.886719 14.746094 51.746094 14.222656 51.445312 13.703125 C 51.078125 13.066406 50.597656 12.535156 50.003906 12.105469 C 50 12.105469 50 12.105469 49.996094 12.105469 C 49.992188 12.105469 49.984375 12.109375 49.984375 12.113281 C 49.90625 12.75 49.957031 13.363281 50.136719 13.953125 C 50.261719 14.367188 50.433594 14.703125 50.644531 14.964844 C 50.890625 15.269531 51.199219 15.503906 51.570312 15.667969 C 51.628906 15.695312 51.683594 15.738281 51.730469 15.796875 L 52.144531 16.324219 C 52.160156 16.34375 52.171875 16.371094 52.167969 16.394531 C 52.105469 17.574219 51.894531 18.710938 51.542969 19.808594 C 51.523438 19.871094 51.5 19.871094 51.472656 19.816406 L 51.28125 19.421875 C 51.273438 19.402344 51.273438 19.378906 51.28125 19.351562 C 51.304688 19.257812 51.335938 19.167969 51.367188 19.078125 C 51.414062 18.960938 51.441406 18.871094 51.453125 18.808594 C 51.535156 18.398438 51.5 17.957031 51.351562 17.488281 C 51.136719 16.8125 50.785156 16.199219 50.304688 15.65625 C 50.234375 15.578125 50.1875 15.589844 50.15625 15.691406 C 49.96875 16.367188 49.921875 17.050781 50.019531 17.746094 C 50.070312 18.105469 50.15625 18.402344 50.285156 18.628906 C 50.4375 18.910156 50.648438 19.144531 50.917969 19.335938 C 51.007812 19.398438 51.074219 19.472656 51.117188 19.558594 C 51.21875 19.753906 51.316406 19.953125 51.40625 20.15625 C 51.417969 20.179688 51.417969 20.203125 51.410156 20.226562 C 51.125 21.085938 50.738281 21.898438 50.253906 22.660156 C 50.25 22.664062 50.25 22.664062 50.246094 22.667969 C 50.234375 22.675781 50.214844 22.675781 50.207031 22.664062 C 50.117188 22.554688 50.113281 22.429688 50.199219 22.292969 C 50.351562 22.042969 50.453125 21.773438 50.496094 21.480469 C 50.53125 21.226562 50.519531 20.945312 50.453125 20.636719 C 50.316406 20 50.035156 19.429688 49.613281 18.925781 C 49.554688 18.855469 49.507812 18.863281 49.480469 18.949219 C 49.222656 19.660156 49.125 20.386719 49.195312 21.128906 C 49.242188 21.636719 49.4375 22.035156 49.78125 22.328125 C 49.929688 22.453125 50.011719 22.589844 50.03125 22.742188 C 50.046875 22.855469 50.003906 22.988281 49.902344 23.144531 C 49.53125 23.710938 49.097656 24.246094 48.597656 24.746094 C 48.539062 24.804688 48.503906 24.792969 48.488281 24.714844 C 48.480469 24.671875 48.488281 24.621094 48.507812 24.5625 C 48.519531 24.527344 48.542969 24.484375 48.582031 24.433594 C 48.992188 23.902344 49.121094 23.296875 48.960938 22.617188 C 48.851562 22.148438 48.652344 21.722656 48.351562 21.335938 C 48.351562 21.335938 48.347656 21.332031 48.34375 21.328125 C 48.328125 21.320312 48.308594 21.324219 48.300781 21.339844 C 47.921875 22.023438 47.757812 22.761719 47.808594 23.558594 C 47.828125 23.90625 47.996094 24.210938 48.308594 24.472656 C 48.328125 24.488281 48.339844 24.511719 48.339844 24.535156 C 48.347656 24.648438 48.335938 24.761719 48.316406 24.871094 C 48.292969 24.980469 48.234375 25.085938 48.136719 25.179688 C 47.683594 25.636719 47.175781 26.054688 46.617188 26.425781 C 46.617188 26.429688 46.613281 26.429688 46.613281 26.429688 C 46.585938 26.441406 46.558594 26.433594 46.542969 26.410156 C 46.492188 26.3125 46.507812 26.238281 46.582031 26.179688 C 46.613281 26.15625 46.628906 26.144531 46.628906 26.144531 C 47.113281 25.722656 47.371094 25.222656 47.40625 24.648438 C 47.441406 24.042969 47.402344 23.445312 47.292969 22.851562 C 47.28125 22.792969 47.253906 22.785156 47.210938 22.824219 C 46.765625 23.226562 46.429688 23.707031 46.214844 24.269531 C 46.097656 24.570312 46.039062 24.878906 46.039062 25.203125 C 46.039062 25.492188 46.125 25.777344 46.300781 26.058594 C 46.398438 26.214844 46.414062 26.363281 46.347656 26.5 C 46.304688 26.585938 46.207031 26.675781 46.054688 26.765625 C 45.480469 27.109375 44.875 27.382812 44.242188 27.589844 C 44.191406 27.605469 44.171875 27.585938 44.1875 27.539062 C 44.199219 27.484375 44.222656 27.4375 44.246094 27.394531 C 44.269531 27.355469 44.308594 27.324219 44.363281 27.296875 C 44.777344 27.085938 45.070312 26.820312 45.242188 26.496094 C 45.59375 25.828125 45.761719 25.128906 45.75 24.398438 C 45.75 24.390625 45.746094 24.382812 45.742188 24.375 C 45.726562 24.351562 45.695312 24.34375 45.671875 24.355469 C 45.203125 24.628906 44.800781 24.976562 44.464844 25.394531 C 44.0625 25.890625 43.929688 26.457031 44.058594 27.085938 C 44.097656 27.265625 44.070312 27.4375 43.984375 27.605469 C 43.957031 27.65625 43.910156 27.695312 43.851562 27.714844 C 43.417969 27.84375 42.992188 27.949219 42.574219 28.03125 C 42.453125 28.054688 42.429688 28.121094 42.503906 28.234375 C 42.53125 28.273438 42.574219 28.292969 42.621094 28.285156 C 43.449219 28.136719 44.242188 27.902344 44.996094 27.582031 C 45.039062 27.5625 45.089844 27.5625 45.132812 27.578125 C 45.261719 27.625 45.371094 27.675781 45.46875 27.726562 C 45.550781 27.773438 45.636719 27.855469 45.726562 27.976562 C 45.882812 28.1875 46.074219 28.355469 46.296875 28.480469 C 46.5 28.589844 46.734375 28.65625 47.011719 28.683594 C 47.667969 28.75 48.28125 28.589844 48.855469 28.203125 C 48.867188 28.199219 48.875 28.1875 48.882812 28.175781 C 48.90625 28.136719 48.890625 28.085938 48.851562 28.0625 C 48.425781 27.828125 47.984375 27.648438 47.523438 27.523438 C 46.953125 27.367188 46.382812 27.375 45.816406 27.546875 C 45.679688 27.589844 45.550781 27.566406 45.429688 27.480469 C 45.425781 27.476562 45.417969 27.46875 45.414062 27.464844 C 45.402344 27.4375 45.414062 27.410156 45.4375 27.398438 C 45.984375 27.128906 46.511719 26.816406 47.027344 26.46875 C 47.03125 26.464844 47.074219 26.429688 47.160156 26.363281 C 47.289062 26.261719 47.425781 26.230469 47.570312 26.269531 C 47.632812 26.285156 47.757812 26.367188 47.945312 26.515625 C 48.332031 26.824219 48.785156 26.957031 49.300781 26.902344 C 49.921875 26.839844 50.476562 26.59375 50.953125 26.164062 C 50.957031 26.164062 50.957031 26.160156 50.960938 26.15625 C 50.964844 26.144531 50.960938 26.128906 50.949219 26.121094 C 50.457031 25.878906 49.964844 25.722656 49.472656 25.660156 C 48.878906 25.585938 48.328125 25.71875 47.828125 26.066406 C 47.796875 26.085938 47.765625 26.097656 47.734375 26.101562 C 47.582031 26.121094 47.574219 26.074219 47.707031 25.960938 C 48.199219 25.535156 48.671875 25.085938 49.132812 24.613281 C 49.164062 24.582031 49.207031 24.566406 49.25 24.566406 C 49.429688 24.574219 49.582031 24.613281 49.699219 24.683594 C 49.84375 24.765625 49.914062 24.808594 49.917969 24.808594 C 50.550781 25.082031 51.175781 25.042969 51.792969 24.695312 C 52.183594 24.472656 52.539062 24.199219 52.851562 23.878906 C 52.878906 23.851562 52.871094 23.832031 52.835938 23.824219 C 52.308594 23.71875 51.785156 23.671875 51.269531 23.691406 C 50.707031 23.710938 50.234375 23.882812 49.851562 24.207031 C 49.847656 24.210938 49.8125 24.25 49.746094 24.320312 C 49.652344 24.417969 49.527344 24.449219 49.375 24.410156 C 49.371094 24.410156 49.367188 24.410156 49.363281 24.40625 C 49.347656 24.394531 49.347656 24.378906 49.355469 24.363281 L 50.679688 22.5625 C 50.695312 22.539062 50.714844 22.523438 50.738281 22.515625 C 50.847656 22.484375 50.976562 22.484375 51.121094 22.519531 C 51.953125 22.722656 52.671875 22.519531 53.273438 21.910156 C 53.671875 21.507812 53.988281 21.074219 54.222656 20.609375 C 54.261719 20.535156 54.238281 20.503906 54.15625 20.511719 C 53.640625 20.554688 53.160156 20.667969 52.714844 20.84375 C 52.035156 21.117188 51.507812 21.566406 51.140625 22.199219 C 51.066406 22.320312 50.964844 22.371094 50.828125 22.351562 C 50.824219 22.351562 50.820312 22.351562 50.816406 22.347656 C 50.792969 22.335938 50.785156 22.308594 50.796875 22.285156 C 51.144531 21.640625 51.445312 20.992188 51.691406 20.339844 C 51.707031 20.300781 51.734375 20.265625 51.773438 20.25 C 52.074219 20.09375 52.332031 19.925781 52.546875 19.742188 C 52.566406 19.726562 52.585938 19.714844 52.613281 19.710938 C 53.351562 19.554688 53.890625 19.140625 54.230469 18.46875 C 54.492188 17.953125 54.671875 17.402344 54.769531 16.816406 C 54.78125 16.742188 54.753906 16.71875 54.683594 16.746094 Z M 54.683594 16.746094 " fill-opacity="1" fill-rule="nonzero"/></g><g clip-path="url(#d962a883d2)"><path fill="#042f69" d="M 34.941406 28.027344 C 34.804688 28.011719 34.449219 27.925781 33.875 27.757812 C 33.6875 27.707031 33.578125 27.667969 33.546875 27.648438 C 33.445312 27.578125 33.390625 27.460938 33.390625 27.300781 C 33.386719 27.21875 33.394531 27.136719 33.414062 27.058594 C 33.503906 26.636719 33.460938 26.246094 33.289062 25.890625 C 32.957031 25.203125 32.449219 24.695312 31.765625 24.363281 C 31.761719 24.359375 31.757812 24.359375 31.753906 24.359375 C 31.738281 24.359375 31.730469 24.371094 31.730469 24.382812 C 31.734375 24.832031 31.800781 25.296875 31.929688 25.78125 C 32.121094 26.476562 32.523438 26.988281 33.144531 27.320312 C 33.230469 27.363281 33.261719 27.4375 33.246094 27.535156 C 33.246094 27.535156 33.246094 27.539062 33.242188 27.539062 C 33.238281 27.558594 33.21875 27.566406 33.199219 27.558594 C 32.523438 27.335938 31.910156 27.066406 31.367188 26.746094 C 31.175781 26.632812 31.089844 26.480469 31.109375 26.292969 C 31.117188 26.234375 31.179688 26.09375 31.296875 25.867188 C 31.445312 25.578125 31.5 25.292969 31.457031 25.011719 C 31.34375 24.234375 30.96875 23.515625 30.332031 22.855469 C 30.273438 22.796875 30.234375 22.808594 30.214844 22.886719 C 30.0625 23.445312 30.015625 24.042969 30.070312 24.683594 C 30.121094 25.296875 30.394531 25.78125 30.878906 26.144531 C 30.976562 26.21875 31 26.308594 30.941406 26.410156 C 30.941406 26.410156 30.941406 26.410156 30.941406 26.414062 C 30.933594 26.429688 30.910156 26.4375 30.890625 26.425781 C 30.320312 26.09375 29.808594 25.691406 29.355469 25.21875 C 29.261719 25.121094 29.199219 25.023438 29.175781 24.929688 C 29.152344 24.824219 29.140625 24.707031 29.144531 24.578125 C 29.148438 24.542969 29.160156 24.511719 29.183594 24.484375 C 29.480469 24.171875 29.640625 23.828125 29.660156 23.460938 C 29.707031 22.707031 29.558594 22 29.214844 21.339844 C 29.210938 21.335938 29.210938 21.332031 29.207031 21.332031 C 29.195312 21.320312 29.179688 21.324219 29.171875 21.335938 C 28.890625 21.652344 28.683594 22.046875 28.546875 22.519531 C 28.324219 23.285156 28.457031 23.949219 28.949219 24.519531 C 29.011719 24.59375 29.015625 24.679688 28.957031 24.78125 C 28.957031 24.785156 28.957031 24.785156 28.953125 24.789062 C 28.941406 24.800781 28.921875 24.800781 28.910156 24.789062 C 28.402344 24.296875 27.953125 23.75 27.570312 23.15625 C 27.515625 23.066406 27.484375 22.984375 27.480469 22.90625 C 27.476562 22.8125 27.488281 22.722656 27.519531 22.636719 C 27.546875 22.566406 27.621094 22.460938 27.75 22.324219 C 28.128906 21.910156 28.320312 21.386719 28.320312 20.746094 C 28.320312 20.136719 28.210938 19.535156 27.984375 18.9375 C 27.957031 18.859375 27.914062 18.855469 27.863281 18.917969 C 27.476562 19.410156 27.207031 19.960938 27.050781 20.570312 C 26.890625 21.199219 26.96875 21.785156 27.277344 22.332031 C 27.34375 22.453125 27.378906 22.515625 27.378906 22.519531 C 27.390625 22.582031 27.375 22.660156 27.328125 22.753906 C 27.3125 22.78125 27.300781 22.78125 27.285156 22.757812 C 26.769531 21.945312 26.367188 21.105469 26.078125 20.226562 C 26.070312 20.203125 26.070312 20.179688 26.078125 20.15625 L 26.382812 19.492188 C 26.40625 19.441406 26.441406 19.398438 26.488281 19.367188 C 26.933594 19.082031 27.21875 18.667969 27.347656 18.121094 C 27.539062 17.304688 27.523438 16.484375 27.304688 15.660156 C 27.277344 15.570312 27.234375 15.558594 27.171875 15.628906 C 26.664062 16.207031 26.292969 16.859375 26.058594 17.589844 C 25.867188 18.191406 25.914062 18.769531 26.195312 19.320312 C 26.207031 19.347656 26.210938 19.371094 26.203125 19.390625 L 26.007812 19.804688 C 25.988281 19.84375 25.96875 19.84375 25.949219 19.800781 C 25.875 19.652344 25.820312 19.503906 25.78125 19.351562 C 25.542969 18.429688 25.398438 17.457031 25.351562 16.433594 C 25.351562 16.382812 25.367188 16.335938 25.394531 16.296875 C 25.535156 16.125 25.644531 15.980469 25.730469 15.863281 C 25.804688 15.761719 25.894531 15.683594 26.007812 15.632812 C 26.121094 15.578125 26.179688 15.550781 26.183594 15.546875 C 26.574219 15.324219 26.871094 15.046875 27.074219 14.71875 C 27.34375 14.273438 27.496094 13.769531 27.53125 13.203125 C 27.542969 12.976562 27.550781 12.800781 27.550781 12.683594 C 27.554688 12.527344 27.542969 12.351562 27.523438 12.164062 C 27.523438 12.15625 27.519531 12.148438 27.515625 12.140625 C 27.5 12.121094 27.472656 12.117188 27.449219 12.132812 C 27.003906 12.453125 26.609375 12.851562 26.265625 13.320312 C 26 13.691406 25.804688 14.097656 25.683594 14.542969 C 25.605469 14.828125 25.59375 15.121094 25.640625 15.414062 C 25.683594 15.675781 25.597656 15.871094 25.375 16 C 25.371094 16 25.367188 16.003906 25.363281 16.003906 C 25.351562 16.003906 25.34375 15.992188 25.34375 15.980469 C 25.3125 14.816406 25.40625 13.664062 25.617188 12.523438 C 25.621094 12.5 25.609375 12.476562 25.589844 12.464844 C 25.523438 12.4375 25.449219 12.433594 25.378906 12.457031 C 25.355469 12.464844 25.339844 12.484375 25.335938 12.507812 L 25.183594 13.53125 C 25.183594 13.535156 25.183594 13.539062 25.179688 13.542969 C 25.171875 13.554688 25.160156 13.554688 25.148438 13.546875 C 25.050781 13.476562 24.984375 13.386719 24.949219 13.28125 C 24.921875 13.199219 24.929688 13.09375 24.976562 12.957031 C 25.132812 12.480469 25.160156 12.011719 25.050781 11.546875 C 24.890625 10.859375 24.597656 10.230469 24.175781 9.667969 C 24.128906 9.605469 24.09375 9.609375 24.0625 9.683594 C 23.820312 10.289062 23.714844 10.921875 23.746094 11.582031 C 23.765625 11.9375 23.824219 12.222656 23.925781 12.445312 C 24.058594 12.722656 24.25 12.957031 24.511719 13.140625 C 24.632812 13.226562 24.726562 13.3125 24.789062 13.398438 C 24.90625 13.558594 25.015625 13.722656 25.121094 13.890625 C 25.136719 13.910156 25.140625 13.9375 25.140625 13.960938 C 25.078125 14.867188 25.054688 15.777344 25.066406 16.6875 C 25.066406 16.691406 25.0625 16.695312 25.0625 16.699219 C 25.058594 16.710938 25.042969 16.714844 25.03125 16.710938 C 24.761719 16.59375 24.644531 16.402344 24.6875 16.136719 C 24.773438 15.589844 24.71875 15.109375 24.527344 14.691406 C 24.191406 13.972656 23.714844 13.363281 23.09375 12.871094 C 23.050781 12.835938 23.027344 12.847656 23.023438 12.902344 C 22.964844 13.375 22.972656 13.851562 23.042969 14.320312 C 23.117188 14.820312 23.253906 15.226562 23.445312 15.535156 C 23.683594 15.914062 24.015625 16.207031 24.445312 16.410156 C 24.503906 16.4375 24.550781 16.476562 24.585938 16.53125 C 24.730469 16.738281 24.882812 16.902344 25.042969 17.023438 C 25.078125 17.050781 25.097656 17.089844 25.101562 17.132812 C 25.191406 18.058594 25.375 18.980469 25.660156 19.894531 C 25.675781 19.945312 25.65625 19.960938 25.609375 19.941406 C 25.449219 19.871094 25.316406 19.773438 25.21875 19.652344 C 25.164062 19.582031 25.132812 19.484375 25.125 19.355469 C 25.085938 18.867188 24.933594 18.449219 24.664062 18.113281 C 24.179688 17.503906 23.574219 17.054688 22.851562 16.769531 C 22.757812 16.730469 22.71875 16.761719 22.738281 16.863281 C 22.820312 17.359375 22.972656 17.832031 23.195312 18.273438 C 23.382812 18.652344 23.597656 18.949219 23.835938 19.164062 C 24.117188 19.414062 24.449219 19.59375 24.828125 19.699219 C 24.9375 19.726562 25.035156 19.777344 25.121094 19.839844 C 25.296875 19.976562 25.5 20.113281 25.722656 20.25 C 25.753906 20.273438 25.78125 20.304688 25.792969 20.339844 C 26.042969 20.984375 26.339844 21.632812 26.6875 22.273438 C 26.691406 22.28125 26.691406 22.285156 26.691406 22.289062 C 26.699219 22.320312 26.679688 22.347656 26.648438 22.355469 C 26.582031 22.367188 26.523438 22.351562 26.460938 22.3125 C 26.425781 22.289062 26.390625 22.242188 26.351562 22.171875 C 26.132812 21.796875 25.875 21.507812 25.582031 21.304688 C 24.910156 20.839844 24.15625 20.578125 23.316406 20.515625 C 23.246094 20.507812 23.226562 20.539062 23.257812 20.605469 C 23.449219 20.972656 23.679688 21.3125 23.949219 21.628906 C 24.273438 22 24.585938 22.261719 24.890625 22.40625 C 25.335938 22.617188 25.824219 22.660156 26.351562 22.53125 C 26.476562 22.5 26.582031 22.488281 26.675781 22.488281 C 26.742188 22.492188 26.804688 22.527344 26.84375 22.585938 C 27.222656 23.191406 27.644531 23.765625 28.109375 24.308594 C 28.179688 24.390625 28.164062 24.429688 28.066406 24.425781 C 28.039062 24.425781 28.007812 24.429688 27.972656 24.4375 C 27.941406 24.441406 27.90625 24.445312 27.875 24.4375 C 27.839844 24.429688 27.804688 24.402344 27.765625 24.359375 C 27.578125 24.144531 27.359375 23.988281 27.113281 23.886719 C 26.789062 23.757812 26.441406 23.6875 26.0625 23.679688 C 25.585938 23.667969 25.113281 23.714844 24.644531 23.820312 C 24.597656 23.832031 24.59375 23.851562 24.625 23.886719 C 24.988281 24.277344 25.414062 24.578125 25.910156 24.796875 C 26.511719 25.0625 27.097656 25.046875 27.667969 24.75 C 27.671875 24.746094 27.707031 24.726562 27.773438 24.679688 C 27.890625 24.605469 28.046875 24.578125 28.246094 24.59375 C 28.296875 24.597656 28.34375 24.621094 28.375 24.65625 C 28.832031 25.128906 29.3125 25.578125 29.824219 26.003906 C 29.828125 26.007812 29.832031 26.015625 29.835938 26.023438 C 29.84375 26.042969 29.832031 26.070312 29.808594 26.078125 C 29.707031 26.113281 29.605469 26.097656 29.5 26.03125 C 29 25.714844 28.457031 25.597656 27.863281 25.679688 C 27.394531 25.746094 26.925781 25.894531 26.460938 26.125 C 26.457031 26.125 26.453125 26.128906 26.449219 26.132812 C 26.4375 26.144531 26.441406 26.167969 26.453125 26.179688 C 26.980469 26.628906 27.574219 26.871094 28.230469 26.90625 C 28.496094 26.917969 28.730469 26.890625 28.933594 26.820312 C 29.167969 26.742188 29.375 26.617188 29.558594 26.445312 C 29.675781 26.335938 29.773438 26.269531 29.851562 26.25 C 29.996094 26.214844 30.121094 26.238281 30.226562 26.316406 C 30.796875 26.726562 31.398438 27.085938 32.039062 27.386719 C 32.046875 27.390625 32.054688 27.394531 32.058594 27.402344 C 32.074219 27.425781 32.070312 27.457031 32.046875 27.472656 C 31.910156 27.570312 31.761719 27.589844 31.597656 27.539062 C 31.511719 27.511719 31.46875 27.5 31.46875 27.5 C 31.003906 27.382812 30.507812 27.386719 29.980469 27.511719 C 29.480469 27.628906 29.011719 27.808594 28.574219 28.058594 C 28.570312 28.0625 28.5625 28.070312 28.558594 28.074219 C 28.539062 28.101562 28.542969 28.140625 28.570312 28.160156 C 28.996094 28.460938 29.460938 28.632812 29.957031 28.679688 C 30.34375 28.714844 30.6875 28.667969 30.984375 28.542969 C 31.3125 28.402344 31.589844 28.171875 31.8125 27.851562 C 31.839844 27.808594 31.878906 27.777344 31.925781 27.757812 L 32.347656 27.570312 C 32.386719 27.554688 32.433594 27.554688 32.476562 27.570312 C 33.289062 27.886719 34.105469 28.125 34.925781 28.289062 C 34.949219 28.292969 34.972656 28.285156 34.984375 28.265625 C 35.074219 28.117188 35.058594 28.039062 34.941406 28.027344 Z M 34.941406 28.027344 " fill-opacity="1" fill-rule="nonzero"/></g><path fill="#042f69" d="M 38.214844 9.921875 L 39.257812 9.921875 C 39.273438 9.921875 39.28125 9.933594 39.28125 9.945312 L 39.28125 23.015625 C 39.28125 23.03125 39.273438 23.039062 39.257812 23.039062 L 38.214844 23.039062 C 38.199219 23.039062 38.1875 23.03125 38.1875 23.015625 L 38.1875 9.945312 C 38.1875 9.933594 38.199219 9.921875 38.214844 9.921875 Z M 38.214844 9.921875 " fill-opacity="1" fill-rule="nonzero"/><path fill="#042f69" d="M 37.992188 23.886719 L 39.511719 23.886719 C 39.539062 23.886719 39.542969 23.878906 39.527344 23.859375 C 39.378906 23.699219 39.300781 23.511719 39.292969 23.292969 C 39.292969 23.273438 39.277344 23.253906 39.253906 23.253906 L 38.242188 23.246094 C 38.222656 23.246094 38.203125 23.261719 38.203125 23.285156 C 38.1875 23.480469 38.109375 23.664062 37.964844 23.832031 C 37.933594 23.867188 37.945312 23.886719 37.992188 23.886719 Z M 37.992188 23.886719 " fill-opacity="1" fill-rule="nonzero"/><path fill="#042f69" d="M 37.152344 25.917969 C 37.070312 25.988281 36.980469 26.046875 36.882812 26.089844 C 36.640625 26.199219 36.417969 26.335938 36.210938 26.496094 C 35.953125 26.695312 35.890625 26.929688 36.027344 27.195312 C 36.050781 27.246094 36.101562 27.308594 36.179688 27.382812 C 36.242188 27.449219 36.292969 27.511719 36.335938 27.574219 C 36.363281 27.609375 36.40625 27.632812 36.449219 27.632812 C 37.996094 27.652344 39.480469 27.65625 40.90625 27.648438 C 40.90625 27.648438 40.933594 27.652344 40.980469 27.65625 C 41.0625 27.664062 41.121094 27.621094 41.164062 27.535156 C 41.179688 27.5 41.203125 27.472656 41.226562 27.449219 C 41.542969 27.164062 41.601562 26.886719 41.40625 26.621094 C 41.339844 26.523438 41.203125 26.414062 41 26.289062 C 40.851562 26.195312 40.699219 26.105469 40.550781 26.015625 C 40.371094 25.910156 40.253906 25.816406 40.203125 25.738281 C 40.105469 25.578125 40.128906 25.410156 40.269531 25.234375 C 40.464844 24.988281 40.511719 24.761719 40.402344 24.546875 C 40.328125 24.398438 40.183594 24.28125 39.976562 24.203125 C 39.796875 24.132812 39.609375 24.101562 39.414062 24.101562 C 39.214844 24.105469 39.113281 24.105469 39.105469 24.105469 C 38.496094 24.082031 38.09375 24.085938 37.902344 24.109375 C 37.664062 24.144531 37.496094 24.191406 37.390625 24.25 C 37.015625 24.464844 36.925781 24.746094 37.117188 25.09375 C 37.121094 25.097656 37.167969 25.160156 37.257812 25.28125 C 37.347656 25.398438 37.371094 25.527344 37.332031 25.664062 C 37.304688 25.757812 37.246094 25.839844 37.152344 25.917969 Z M 37.152344 25.917969 " fill-opacity="1" fill-rule="nonzero"/><path fill="#042f69" d="M 35.820312 27.707031 C 35.851562 27.691406 35.867188 27.660156 35.863281 27.628906 C 35.816406 27.058594 35.605469 26.578125 35.234375 26.1875 C 34.867188 25.804688 34.445312 25.5 33.964844 25.277344 C 33.960938 25.277344 33.957031 25.277344 33.953125 25.277344 C 33.941406 25.277344 33.929688 25.289062 33.929688 25.300781 C 33.933594 25.816406 34.03125 26.316406 34.21875 26.796875 C 34.320312 27.050781 34.480469 27.289062 34.703125 27.5 C 34.917969 27.707031 35.15625 27.847656 35.417969 27.925781 C 35.4375 27.933594 35.460938 27.925781 35.484375 27.914062 Z M 35.820312 27.707031 " fill-opacity="1" fill-rule="nonzero"/><path fill="#042f69" d="M 43.296875 26.710938 C 43.445312 26.277344 43.535156 25.820312 43.566406 25.332031 C 43.566406 25.324219 43.5625 25.316406 43.5625 25.3125 C 43.550781 25.289062 43.523438 25.277344 43.5 25.289062 C 43.089844 25.484375 42.722656 25.738281 42.398438 26.058594 C 42.160156 26.292969 41.988281 26.535156 41.875 26.78125 C 41.746094 27.0625 41.671875 27.355469 41.65625 27.667969 C 41.65625 27.6875 41.664062 27.703125 41.683594 27.714844 L 42.039062 27.914062 C 42.0625 27.925781 42.089844 27.929688 42.105469 27.921875 C 42.695312 27.710938 43.089844 27.308594 43.296875 26.710938 Z M 43.296875 26.710938 " fill-opacity="1" fill-rule="nonzero"/><path fill="#042f69" d="M 35.832031 27.84375 L 41.691406 27.84375 C 41.796875 27.84375 41.886719 27.878906 41.957031 27.953125 C 42.03125 28.023438 42.066406 28.113281 42.066406 28.21875 L 42.066406 28.226562 C 42.066406 28.332031 42.03125 28.421875 41.957031 28.492188 C 41.886719 28.566406 41.796875 28.605469 41.691406 28.605469 L 35.832031 28.605469 C 35.730469 28.605469 35.640625 28.566406 35.566406 28.492188 C 35.492188 28.421875 35.457031 28.332031 35.457031 28.226562 L 35.457031 28.21875 C 35.457031 28.113281 35.492188 28.023438 35.566406 27.953125 C 35.640625 27.878906 35.730469 27.84375 35.832031 27.84375 Z M 35.832031 27.84375 " fill-opacity="1" fill-rule="nonzero"/><g clip-path="url(#eda533bb47)"><path fill="#042f69" d="M 34.726562 28.484375 C 34.121094 28.394531 33.578125 28.480469 33.105469 28.742188 C 32.59375 29.027344 32.148438 29.390625 31.769531 29.832031 C 31.761719 29.839844 31.761719 29.84375 31.757812 29.851562 C 31.742188 29.886719 31.757812 29.929688 31.792969 29.945312 C 31.980469 30.03125 32.171875 30.078125 32.375 30.085938 C 33.574219 30.144531 34.367188 29.625 34.753906 28.527344 C 34.753906 28.523438 34.753906 28.523438 34.753906 28.523438 C 34.757812 28.503906 34.746094 28.488281 34.726562 28.484375 Z M 34.726562 28.484375 " fill-opacity="1" fill-rule="nonzero"/></g><g clip-path="url(#24106ce3fa)"><path fill="#042f69" d="M 44.296875 28.734375 C 44.046875 28.605469 43.800781 28.527344 43.554688 28.492188 C 43.292969 28.457031 43.03125 28.457031 42.765625 28.488281 C 42.761719 28.488281 42.761719 28.492188 42.757812 28.492188 C 42.734375 28.5 42.71875 28.523438 42.726562 28.546875 C 42.871094 28.976562 43.109375 29.328125 43.453125 29.59375 C 44.054688 30.066406 44.757812 30.199219 45.558594 29.984375 C 45.671875 29.953125 45.691406 29.894531 45.621094 29.800781 C 45.273438 29.359375 44.832031 29.003906 44.296875 28.734375 Z M 44.296875 28.734375 " fill-opacity="1" fill-rule="nonzero"/></g><path fill="#042f69" d="M 38.519531 3.765625 C 38.613281 3.839844 38.714844 3.855469 38.828125 3.816406 C 39.128906 3.707031 39.230469 3.507812 39.125 3.21875 C 39.109375 3.175781 39.058594 3.085938 38.972656 2.957031 C 38.90625 2.851562 38.867188 2.757812 38.859375 2.671875 C 38.847656 2.539062 38.8125 2.414062 38.761719 2.289062 C 38.730469 2.210938 38.699219 2.210938 38.671875 2.292969 C 38.632812 2.414062 38.605469 2.53125 38.589844 2.65625 C 38.574219 2.773438 38.535156 2.878906 38.46875 2.976562 C 38.371094 3.121094 38.320312 3.195312 38.320312 3.199219 C 38.234375 3.40625 38.300781 3.597656 38.519531 3.765625 Z M 38.519531 3.765625 " fill-opacity="1" fill-rule="nonzero"/><g fill="#042f69" fill-opacity="1"><g transform="translate(0.858204, 44.334453)"><g><path d="M 2.609375 -5.859375 L 2.609375 -6.78125 C 2.609375 -7.007812 2.609375 -7.3125 2.609375 -7.6875 C 2.609375 -8.070312 2.601562 -8.46875 2.59375 -8.875 C 2.582031 -9.289062 2.570312 -9.660156 2.5625 -9.984375 C 2.5625 -10.316406 2.546875 -10.550781 2.515625 -10.6875 C 2.398438 -10.707031 2.234375 -10.734375 2.015625 -10.765625 C 1.796875 -10.796875 1.570312 -10.820312 1.34375 -10.84375 C 1.125 -10.875 0.945312 -10.894531 0.8125 -10.90625 L 0.765625 -11.234375 C 0.898438 -11.222656 1.125 -11.210938 1.4375 -11.203125 C 1.757812 -11.191406 2.109375 -11.179688 2.484375 -11.171875 C 2.859375 -11.171875 3.207031 -11.171875 3.53125 -11.171875 C 3.894531 -11.171875 4.28125 -11.171875 4.6875 -11.171875 C 5.101562 -11.179688 5.476562 -11.191406 5.8125 -11.203125 C 6.144531 -11.210938 6.363281 -11.222656 6.46875 -11.234375 L 6.390625 -10.90625 C 6.191406 -10.894531 5.90625 -10.863281 5.53125 -10.8125 C 5.164062 -10.757812 4.820312 -10.71875 4.5 -10.6875 C 4.488281 -10.550781 4.476562 -10.320312 4.46875 -10 C 4.457031 -9.6875 4.445312 -9.328125 4.4375 -8.921875 C 4.425781 -8.515625 4.421875 -8.101562 4.421875 -7.6875 C 4.421875 -7.28125 4.421875 -6.914062 4.421875 -6.59375 L 4.421875 -6.015625 C 4.421875 -5.492188 4.421875 -4.929688 4.421875 -4.328125 C 4.421875 -3.734375 4.425781 -3.160156 4.4375 -2.609375 C 4.445312 -2.054688 4.457031 -1.585938 4.46875 -1.203125 C 4.476562 -0.828125 4.488281 -0.597656 4.5 -0.515625 C 5.445312 -0.515625 6.242188 -0.597656 6.890625 -0.765625 C 7.546875 -0.929688 8.019531 -1.117188 8.3125 -1.328125 C 8.4375 -1.597656 8.546875 -1.910156 8.640625 -2.265625 C 8.742188 -2.628906 8.828125 -2.921875 8.890625 -3.140625 L 9.28125 -3.203125 C 9.113281 -2.492188 8.957031 -1.707031 8.8125 -0.84375 C 8.675781 0.0078125 8.550781 0.972656 8.4375 2.046875 L 8.0625 1.96875 C 8.0625 1.894531 8.066406 1.734375 8.078125 1.484375 C 8.097656 1.242188 8.113281 0.984375 8.125 0.703125 C 8.132812 0.429688 8.140625 0.226562 8.140625 0.09375 C 8.066406 0.0820312 7.890625 0.0703125 7.609375 0.0625 C 7.328125 0.0625 6.988281 0.0546875 6.59375 0.046875 C 6.195312 0.0351562 5.796875 0.0234375 5.390625 0.015625 C 4.984375 0.015625 4.601562 0.0078125 4.25 0 C 3.90625 0 3.648438 0 3.484375 0 C 3.210938 0 2.894531 0 2.53125 0 C 2.164062 0.0078125 1.816406 0.0195312 1.484375 0.03125 C 1.148438 0.0390625 0.910156 0.0507812 0.765625 0.0625 L 0.828125 -0.265625 C 0.910156 -0.273438 1.066406 -0.289062 1.296875 -0.3125 C 1.523438 -0.332031 1.757812 -0.359375 2 -0.390625 C 2.238281 -0.429688 2.410156 -0.46875 2.515625 -0.5 C 2.546875 -0.675781 2.5625 -0.976562 2.5625 -1.40625 C 2.570312 -1.832031 2.582031 -2.3125 2.59375 -2.84375 C 2.601562 -3.382812 2.609375 -3.921875 2.609375 -4.453125 C 2.609375 -4.992188 2.609375 -5.460938 2.609375 -5.859375 Z M 2.609375 -5.859375 "/></g></g></g><g fill="#042f69" fill-opacity="1"><g transform="translate(10.26453, 44.334453)"><g><path d="M 2.609375 -5.484375 L 2.609375 -6.21875 C 2.609375 -6.570312 2.601562 -6.976562 2.59375 -7.4375 C 2.59375 -7.894531 2.585938 -8.347656 2.578125 -8.796875 C 2.566406 -9.242188 2.550781 -9.632812 2.53125 -9.96875 C 2.519531 -10.3125 2.503906 -10.550781 2.484375 -10.6875 C 2.390625 -10.707031 2.234375 -10.726562 2.015625 -10.75 C 1.796875 -10.78125 1.570312 -10.8125 1.34375 -10.84375 C 1.125 -10.875 0.953125 -10.894531 0.828125 -10.90625 L 0.765625 -11.234375 C 1.023438 -11.222656 1.328125 -11.210938 1.671875 -11.203125 C 2.023438 -11.191406 2.375 -11.179688 2.71875 -11.171875 C 3.070312 -11.171875 3.367188 -11.171875 3.609375 -11.171875 C 3.710938 -11.171875 3.925781 -11.171875 4.25 -11.171875 C 4.570312 -11.171875 4.941406 -11.171875 5.359375 -11.171875 C 5.773438 -11.179688 6.191406 -11.1875 6.609375 -11.1875 C 7.035156 -11.195312 7.398438 -11.210938 7.703125 -11.234375 C 8.015625 -11.253906 8.210938 -11.273438 8.296875 -11.296875 C 8.359375 -11.503906 8.40625 -11.753906 8.4375 -12.046875 L 8.796875 -12.109375 C 8.773438 -12.023438 8.75 -11.832031 8.71875 -11.53125 C 8.6875 -11.226562 8.65625 -10.890625 8.625 -10.515625 C 8.59375 -10.140625 8.5625 -9.789062 8.53125 -9.46875 C 8.507812 -9.144531 8.492188 -8.921875 8.484375 -8.796875 L 8.125 -8.90625 C 8.125 -8.945312 8.125 -9.039062 8.125 -9.1875 C 8.125 -9.332031 8.125 -9.488281 8.125 -9.65625 C 8.132812 -9.820312 8.132812 -9.957031 8.125 -10.0625 C 8.050781 -10.175781 7.863281 -10.273438 7.5625 -10.359375 C 7.269531 -10.441406 6.925781 -10.507812 6.53125 -10.5625 C 6.144531 -10.625 5.769531 -10.664062 5.40625 -10.6875 C 5.039062 -10.71875 4.75 -10.734375 4.53125 -10.734375 C 4.519531 -10.691406 4.507812 -10.546875 4.5 -10.296875 C 4.488281 -10.054688 4.476562 -9.757812 4.46875 -9.40625 C 4.457031 -9.0625 4.445312 -8.695312 4.4375 -8.3125 C 4.4375 -7.9375 4.429688 -7.582031 4.421875 -7.25 C 4.421875 -6.925781 4.421875 -6.671875 4.421875 -6.484375 L 4.421875 -6.15625 C 4.878906 -6.15625 5.335938 -6.164062 5.796875 -6.1875 C 6.253906 -6.21875 6.65625 -6.253906 7 -6.296875 C 7.351562 -6.335938 7.597656 -6.378906 7.734375 -6.421875 C 7.773438 -6.535156 7.804688 -6.648438 7.828125 -6.765625 C 7.859375 -6.890625 7.878906 -7.003906 7.890625 -7.109375 L 8.21875 -7.140625 C 8.207031 -7.066406 8.179688 -6.894531 8.140625 -6.625 C 8.109375 -6.363281 8.066406 -6.0625 8.015625 -5.71875 C 7.972656 -5.382812 7.929688 -5.070312 7.890625 -4.78125 C 7.859375 -4.488281 7.832031 -4.28125 7.8125 -4.15625 L 7.5 -4.28125 C 7.507812 -4.445312 7.515625 -4.625 7.515625 -4.8125 C 7.523438 -5.007812 7.53125 -5.1875 7.53125 -5.34375 C 7.289062 -5.476562 6.882812 -5.570312 6.3125 -5.625 C 5.75 -5.675781 5.117188 -5.703125 4.421875 -5.703125 L 4.421875 -5.375 C 4.421875 -5.1875 4.421875 -4.910156 4.421875 -4.546875 C 4.429688 -4.191406 4.4375 -3.800781 4.4375 -3.375 C 4.445312 -2.945312 4.457031 -2.523438 4.46875 -2.109375 C 4.476562 -1.703125 4.488281 -1.347656 4.5 -1.046875 C 4.507812 -0.753906 4.519531 -0.5625 4.53125 -0.46875 C 5.332031 -0.46875 6.082031 -0.503906 6.78125 -0.578125 C 7.476562 -0.660156 8.007812 -0.800781 8.375 -1 C 8.457031 -1.28125 8.523438 -1.539062 8.578125 -1.78125 C 8.628906 -2.03125 8.675781 -2.238281 8.71875 -2.40625 L 9.09375 -2.5 C 9.050781 -2.382812 9.003906 -2.164062 8.953125 -1.84375 C 8.910156 -1.53125 8.859375 -1.175781 8.796875 -0.78125 C 8.742188 -0.382812 8.695312 -0.0078125 8.65625 0.34375 C 8.613281 0.695312 8.582031 0.976562 8.5625 1.1875 L 8.21875 1.125 C 8.21875 0.90625 8.21875 0.71875 8.21875 0.5625 C 8.21875 0.40625 8.210938 0.265625 8.203125 0.140625 C 8.109375 0.128906 7.910156 0.113281 7.609375 0.09375 C 7.304688 0.0820312 6.945312 0.0703125 6.53125 0.0625 C 6.113281 0.0507812 5.6875 0.0390625 5.25 0.03125 C 4.8125 0.0195312 4.410156 0.0078125 4.046875 0 C 3.679688 0 3.394531 0 3.1875 0 C 3.007812 0 2.769531 0 2.46875 0 C 2.164062 0.0078125 1.859375 0.0195312 1.546875 0.03125 C 1.234375 0.0390625 0.972656 0.0507812 0.765625 0.0625 L 0.84375 -0.265625 C 0.925781 -0.273438 1.070312 -0.289062 1.28125 -0.3125 C 1.488281 -0.332031 1.707031 -0.359375 1.9375 -0.390625 C 2.164062 -0.429688 2.347656 -0.46875 2.484375 -0.5 C 2.503906 -0.570312 2.519531 -0.785156 2.53125 -1.140625 C 2.550781 -1.492188 2.566406 -1.921875 2.578125 -2.421875 C 2.585938 -2.929688 2.59375 -3.457031 2.59375 -4 C 2.601562 -4.550781 2.609375 -5.046875 2.609375 -5.484375 Z M 2.609375 -5.484375 "/></g></g></g><g fill="#042f69" fill-opacity="1"><g transform="translate(20.485336, 44.334453)"><g><path d="M 11.5 0.578125 L 10.828125 0.734375 C 10.378906 0.398438 9.925781 0.0078125 9.46875 -0.4375 C 9.007812 -0.894531 8.5625 -1.363281 8.125 -1.84375 C 7.695312 -2.332031 7.296875 -2.800781 6.921875 -3.25 C 6.554688 -3.695312 6.234375 -4.09375 5.953125 -4.4375 C 5.679688 -4.789062 5.472656 -5.046875 5.328125 -5.203125 C 5.242188 -5.109375 5.109375 -4.925781 4.921875 -4.65625 C 4.734375 -4.394531 4.519531 -4.078125 4.28125 -3.703125 C 4.039062 -3.335938 3.796875 -2.957031 3.546875 -2.5625 C 3.304688 -2.164062 3.082031 -1.785156 2.875 -1.421875 C 2.675781 -1.054688 2.515625 -0.75 2.390625 -0.5 C 2.578125 -0.457031 2.8125 -0.410156 3.09375 -0.359375 C 3.375 -0.316406 3.582031 -0.285156 3.71875 -0.265625 L 3.765625 0.0625 C 3.679688 0.0625 3.507812 0.0546875 3.25 0.046875 C 2.988281 0.0351562 2.691406 0.0234375 2.359375 0.015625 C 2.023438 0.00390625 1.703125 0 1.390625 0 C 0.941406 0 0.585938 0.00390625 0.328125 0.015625 C 0.078125 0.0234375 -0.144531 0.0390625 -0.34375 0.0625 L -0.234375 -0.265625 C -0.078125 -0.285156 0.0859375 -0.3125 0.265625 -0.34375 C 0.453125 -0.382812 0.617188 -0.4375 0.765625 -0.5 C 0.867188 -0.5625 1.03125 -0.71875 1.25 -0.96875 C 1.476562 -1.21875 1.734375 -1.519531 2.015625 -1.875 C 2.296875 -2.226562 2.59375 -2.601562 2.90625 -3 C 3.21875 -3.394531 3.507812 -3.773438 3.78125 -4.140625 C 4.0625 -4.515625 4.304688 -4.84375 4.515625 -5.125 C 4.722656 -5.414062 4.867188 -5.613281 4.953125 -5.71875 C 4.660156 -6.082031 4.335938 -6.503906 3.984375 -6.984375 C 3.628906 -7.472656 3.269531 -7.960938 2.90625 -8.453125 C 2.539062 -8.953125 2.203125 -9.398438 1.890625 -9.796875 C 1.585938 -10.191406 1.347656 -10.488281 1.171875 -10.6875 C 1.023438 -10.738281 0.859375 -10.78125 0.671875 -10.8125 C 0.484375 -10.84375 0.300781 -10.875 0.125 -10.90625 L 0.078125 -11.234375 C 0.171875 -11.222656 0.421875 -11.207031 0.828125 -11.1875 C 1.242188 -11.175781 1.804688 -11.171875 2.515625 -11.171875 C 2.941406 -11.171875 3.390625 -11.175781 3.859375 -11.1875 C 4.328125 -11.207031 4.726562 -11.222656 5.0625 -11.234375 L 4.96875 -10.90625 C 4.664062 -10.875 4.398438 -10.835938 4.171875 -10.796875 C 3.953125 -10.765625 3.765625 -10.726562 3.609375 -10.6875 C 3.648438 -10.601562 3.75 -10.4375 3.90625 -10.1875 C 4.0625 -9.945312 4.25 -9.664062 4.46875 -9.34375 C 4.6875 -9.019531 4.90625 -8.695312 5.125 -8.375 C 5.34375 -8.050781 5.539062 -7.765625 5.71875 -7.515625 C 5.894531 -7.273438 6.019531 -7.113281 6.09375 -7.03125 C 6.21875 -7.175781 6.394531 -7.40625 6.625 -7.71875 C 6.851562 -8.039062 7.09375 -8.390625 7.34375 -8.765625 C 7.601562 -9.148438 7.84375 -9.515625 8.0625 -9.859375 C 8.289062 -10.203125 8.453125 -10.476562 8.546875 -10.6875 C 8.398438 -10.738281 8.195312 -10.785156 7.9375 -10.828125 C 7.6875 -10.867188 7.507812 -10.894531 7.40625 -10.90625 L 7.34375 -11.234375 C 7.519531 -11.222656 7.800781 -11.207031 8.1875 -11.1875 C 8.582031 -11.175781 8.992188 -11.171875 9.421875 -11.171875 C 9.765625 -11.171875 10.078125 -11.175781 10.359375 -11.1875 C 10.640625 -11.207031 10.878906 -11.222656 11.078125 -11.234375 L 11.046875 -10.90625 C 10.898438 -10.863281 10.726562 -10.820312 10.53125 -10.78125 C 10.34375 -10.75 10.1875 -10.71875 10.0625 -10.6875 C 10.007812 -10.664062 9.863281 -10.53125 9.625 -10.28125 C 9.394531 -10.039062 9.117188 -9.734375 8.796875 -9.359375 C 8.484375 -8.992188 8.164062 -8.617188 7.84375 -8.234375 C 7.519531 -7.847656 7.226562 -7.5 6.96875 -7.1875 C 6.71875 -6.875 6.546875 -6.65625 6.453125 -6.53125 C 6.628906 -6.269531 6.878906 -5.910156 7.203125 -5.453125 C 7.535156 -5.003906 7.898438 -4.492188 8.296875 -3.921875 C 8.691406 -3.347656 9.085938 -2.773438 9.484375 -2.203125 C 9.890625 -1.628906 10.265625 -1.097656 10.609375 -0.609375 C 10.960938 -0.117188 11.257812 0.273438 11.5 0.578125 Z M 11.5 0.578125 "/></g></g></g><g fill="#042f69" fill-opacity="1"><g transform="translate(31.488632, 44.334453)"><g><path d="M 7.34375 0.25 C 6.8125 0.25 6.257812 0.207031 5.6875 0.125 C 5.113281 0.0390625 4.546875 -0.125 3.984375 -0.375 C 3.429688 -0.632812 2.90625 -1.019531 2.40625 -1.53125 C 1.820312 -2.125 1.421875 -2.726562 1.203125 -3.34375 C 0.984375 -3.96875 0.875 -4.648438 0.875 -5.390625 C 0.875 -6.179688 1.03125 -6.9375 1.34375 -7.65625 C 1.664062 -8.382812 2.128906 -9.03125 2.734375 -9.59375 C 3.335938 -10.15625 4.070312 -10.601562 4.9375 -10.9375 C 5.8125 -11.269531 6.796875 -11.4375 7.890625 -11.4375 C 8.742188 -11.4375 9.519531 -11.347656 10.21875 -11.171875 C 10.925781 -10.992188 11.625 -10.648438 12.3125 -10.140625 C 12.9375 -9.679688 13.414062 -9.09375 13.75 -8.375 C 14.082031 -7.65625 14.25 -6.925781 14.25 -6.1875 C 14.25 -5.195312 14.070312 -4.304688 13.71875 -3.515625 C 13.375 -2.734375 12.890625 -2.0625 12.265625 -1.5 C 11.648438 -0.9375 10.921875 -0.503906 10.078125 -0.203125 C 9.234375 0.0976562 8.320312 0.25 7.34375 0.25 Z M 8.125 -0.40625 C 8.695312 -0.40625 9.234375 -0.523438 9.734375 -0.765625 C 10.234375 -1.003906 10.675781 -1.332031 11.0625 -1.75 C 11.445312 -2.164062 11.75 -2.65625 11.96875 -3.21875 C 12.1875 -3.78125 12.296875 -4.378906 12.296875 -5.015625 C 12.296875 -5.867188 12.160156 -6.648438 11.890625 -7.359375 C 11.628906 -8.066406 11.265625 -8.675781 10.796875 -9.1875 C 10.328125 -9.707031 9.789062 -10.109375 9.1875 -10.390625 C 8.582031 -10.679688 7.953125 -10.828125 7.296875 -10.828125 C 6.753906 -10.828125 6.210938 -10.734375 5.671875 -10.546875 C 5.128906 -10.359375 4.632812 -10.070312 4.1875 -9.6875 C 3.738281 -9.300781 3.378906 -8.804688 3.109375 -8.203125 C 2.847656 -7.597656 2.71875 -6.882812 2.71875 -6.0625 C 2.71875 -5.351562 2.851562 -4.660156 3.125 -3.984375 C 3.394531 -3.304688 3.769531 -2.695312 4.25 -2.15625 C 4.738281 -1.625 5.3125 -1.195312 5.96875 -0.875 C 6.632812 -0.5625 7.351562 -0.40625 8.125 -0.40625 Z M 8.125 -0.40625 "/></g></g></g><g fill="#042f69" fill-opacity="1"><g transform="translate(46.292783, 44.334453)"><g><path d="M 2.59375 -5.765625 L 2.59375 -6.734375 C 2.59375 -6.859375 2.59375 -7.0625 2.59375 -7.34375 C 2.59375 -7.625 2.585938 -7.9375 2.578125 -8.28125 C 2.578125 -8.632812 2.570312 -8.984375 2.5625 -9.328125 C 2.5625 -9.679688 2.550781 -9.976562 2.53125 -10.21875 C 2.519531 -10.46875 2.507812 -10.625 2.5 -10.6875 C 2.414062 -10.707031 2.257812 -10.726562 2.03125 -10.75 C 1.800781 -10.78125 1.566406 -10.804688 1.328125 -10.828125 C 1.085938 -10.847656 0.910156 -10.863281 0.796875 -10.875 L 0.75 -11.203125 L 4.203125 -11.21875 C 4.710938 -11.21875 5.242188 -11.207031 5.796875 -11.1875 C 6.347656 -11.175781 6.878906 -11.140625 7.390625 -11.078125 C 7.898438 -11.023438 8.335938 -10.925781 8.703125 -10.78125 C 9.128906 -10.613281 9.460938 -10.375 9.703125 -10.0625 C 9.953125 -9.757812 10.078125 -9.390625 10.078125 -8.953125 C 10.078125 -8.628906 9.972656 -8.273438 9.765625 -7.890625 C 9.566406 -7.503906 9.296875 -7.140625 8.953125 -6.796875 C 8.617188 -6.460938 8.242188 -6.175781 7.828125 -5.9375 C 7.859375 -5.851562 7.976562 -5.640625 8.1875 -5.296875 C 8.394531 -4.960938 8.65625 -4.546875 8.96875 -4.046875 C 9.289062 -3.554688 9.640625 -3.03125 10.015625 -2.46875 C 10.398438 -1.914062 10.78125 -1.382812 11.15625 -0.875 C 11.539062 -0.375 11.898438 0.0507812 12.234375 0.40625 L 11.53125 0.515625 C 11.351562 0.429688 11.09375 0.238281 10.75 -0.0625 C 10.414062 -0.363281 10.039062 -0.71875 9.625 -1.125 C 9.21875 -1.539062 8.804688 -1.972656 8.390625 -2.421875 C 7.984375 -2.878906 7.597656 -3.3125 7.234375 -3.71875 C 6.867188 -4.125 6.566406 -4.460938 6.328125 -4.734375 C 6.085938 -5.015625 5.945312 -5.179688 5.90625 -5.234375 C 5.613281 -5.210938 5.316406 -5.191406 5.015625 -5.171875 C 4.722656 -5.148438 4.507812 -5.140625 4.375 -5.140625 L 4.375 -4.734375 C 4.375 -4.472656 4.375 -4.140625 4.375 -3.734375 C 4.382812 -3.335938 4.390625 -2.925781 4.390625 -2.5 C 4.398438 -2.070312 4.410156 -1.675781 4.421875 -1.3125 C 4.429688 -0.945312 4.441406 -0.675781 4.453125 -0.5 C 4.546875 -0.476562 4.703125 -0.453125 4.921875 -0.421875 C 5.140625 -0.390625 5.363281 -0.359375 5.59375 -0.328125 C 5.832031 -0.296875 6.007812 -0.273438 6.125 -0.265625 L 6.203125 0.0625 C 6.097656 0.0507812 5.929688 0.0390625 5.703125 0.03125 C 5.472656 0.03125 5.21875 0.0234375 4.9375 0.015625 C 4.664062 0.015625 4.394531 0.0078125 4.125 0 C 3.851562 0 3.628906 0 3.453125 0 C 3.285156 0 3.066406 0 2.796875 0 C 2.535156 0.0078125 2.265625 0.015625 1.984375 0.015625 C 1.703125 0.0234375 1.445312 0.03125 1.21875 0.03125 C 1 0.0390625 0.84375 0.0507812 0.75 0.0625 L 0.8125 -0.265625 C 0.882812 -0.273438 1.023438 -0.289062 1.234375 -0.3125 C 1.453125 -0.332031 1.679688 -0.359375 1.921875 -0.390625 C 2.160156 -0.429688 2.351562 -0.46875 2.5 -0.5 C 2.519531 -0.613281 2.535156 -0.867188 2.546875 -1.265625 C 2.554688 -1.671875 2.566406 -2.140625 2.578125 -2.671875 C 2.585938 -3.210938 2.59375 -3.757812 2.59375 -4.3125 C 2.59375 -4.863281 2.59375 -5.347656 2.59375 -5.765625 Z M 4.375 -6.125 L 4.375 -5.640625 C 4.664062 -5.640625 4.976562 -5.65625 5.3125 -5.6875 C 5.644531 -5.726562 5.984375 -5.8125 6.328125 -5.9375 C 6.554688 -6.019531 6.8125 -6.160156 7.09375 -6.359375 C 7.375 -6.566406 7.617188 -6.847656 7.828125 -7.203125 C 8.035156 -7.554688 8.140625 -7.992188 8.140625 -8.515625 C 8.140625 -8.847656 8.023438 -9.191406 7.796875 -9.546875 C 7.566406 -9.898438 7.179688 -10.191406 6.640625 -10.421875 C 6.109375 -10.660156 5.378906 -10.78125 4.453125 -10.78125 C 4.441406 -10.625 4.429688 -10.347656 4.421875 -9.953125 C 4.410156 -9.554688 4.398438 -9.113281 4.390625 -8.625 C 4.390625 -8.144531 4.382812 -7.679688 4.375 -7.234375 C 4.375 -6.785156 4.375 -6.414062 4.375 -6.125 Z M 4.375 -6.125 "/></g></g></g><g fill="#042f69" fill-opacity="1"><g transform="translate(58.238341, 44.334453)"><g><path d="M 4.421875 -6.546875 L 4.421875 -5.5625 C 4.421875 -5.039062 4.421875 -4.5 4.421875 -3.9375 C 4.421875 -3.382812 4.425781 -2.859375 4.4375 -2.359375 C 4.445312 -1.867188 4.457031 -1.457031 4.46875 -1.125 C 4.476562 -0.789062 4.488281 -0.582031 4.5 -0.5 C 4.632812 -0.46875 4.8125 -0.429688 5.03125 -0.390625 C 5.257812 -0.359375 5.476562 -0.332031 5.6875 -0.3125 C 5.90625 -0.289062 6.070312 -0.273438 6.1875 -0.265625 L 6.265625 0.0625 C 6.140625 0.0507812 5.898438 0.0390625 5.546875 0.03125 C 5.203125 0.0195312 4.816406 0.0078125 4.390625 0 C 3.960938 0 3.582031 0 3.25 0 C 3.070312 0 2.816406 0 2.484375 0 C 2.148438 0.0078125 1.816406 0.0195312 1.484375 0.03125 C 1.160156 0.0390625 0.921875 0.0507812 0.765625 0.0625 L 0.828125 -0.265625 C 0.921875 -0.273438 1.078125 -0.296875 1.296875 -0.328125 C 1.523438 -0.359375 1.757812 -0.390625 2 -0.421875 C 2.238281 -0.453125 2.410156 -0.476562 2.515625 -0.5 C 2.546875 -0.664062 2.5625 -0.953125 2.5625 -1.359375 C 2.570312 -1.765625 2.582031 -2.226562 2.59375 -2.75 C 2.601562 -3.28125 2.609375 -3.800781 2.609375 -4.3125 C 2.609375 -4.832031 2.609375 -5.289062 2.609375 -5.6875 L 2.609375 -6.625 C 2.609375 -6.726562 2.609375 -6.914062 2.609375 -7.1875 C 2.609375 -7.457031 2.601562 -7.769531 2.59375 -8.125 C 2.59375 -8.476562 2.585938 -8.828125 2.578125 -9.171875 C 2.578125 -9.523438 2.566406 -9.835938 2.546875 -10.109375 C 2.535156 -10.390625 2.523438 -10.582031 2.515625 -10.6875 C 2.410156 -10.707031 2.242188 -10.734375 2.015625 -10.765625 C 1.785156 -10.796875 1.554688 -10.820312 1.328125 -10.84375 C 1.109375 -10.875 0.945312 -10.894531 0.84375 -10.90625 L 0.765625 -11.234375 C 0.867188 -11.222656 1.082031 -11.210938 1.40625 -11.203125 C 1.726562 -11.191406 2.101562 -11.179688 2.53125 -11.171875 C 2.957031 -11.171875 3.378906 -11.171875 3.796875 -11.171875 C 4.078125 -11.171875 4.390625 -11.171875 4.734375 -11.171875 C 5.078125 -11.179688 5.394531 -11.191406 5.6875 -11.203125 C 5.976562 -11.210938 6.171875 -11.222656 6.265625 -11.234375 L 6.1875 -10.90625 C 6.019531 -10.894531 5.769531 -10.863281 5.4375 -10.8125 C 5.101562 -10.757812 4.789062 -10.71875 4.5 -10.6875 C 4.476562 -10.582031 4.460938 -10.320312 4.453125 -9.90625 C 4.441406 -9.5 4.429688 -9 4.421875 -8.40625 C 4.421875 -7.820312 4.421875 -7.203125 4.421875 -6.546875 Z M 4.421875 -6.546875 "/></g></g></g><g fill="#042f69" fill-opacity="1"><g transform="translate(65.265139, 44.334453)"><g><path d="M 6.734375 0.0625 L 6.8125 -0.265625 C 7.09375 -0.285156 7.367188 -0.316406 7.640625 -0.359375 C 7.921875 -0.398438 8.1875 -0.445312 8.4375 -0.5 C 8.382812 -0.664062 8.296875 -0.914062 8.171875 -1.25 C 8.054688 -1.582031 7.925781 -1.953125 7.78125 -2.359375 C 7.644531 -2.765625 7.507812 -3.164062 7.375 -3.5625 C 7.238281 -3.957031 7.113281 -4.300781 7 -4.59375 C 6.882812 -4.882812 6.800781 -5.078125 6.75 -5.171875 C 6.613281 -5.171875 6.375 -5.164062 6.03125 -5.15625 C 5.695312 -5.144531 5.328125 -5.128906 4.921875 -5.109375 C 4.515625 -5.085938 4.140625 -5.0625 3.796875 -5.03125 C 3.460938 -5.007812 3.21875 -4.988281 3.0625 -4.96875 C 3.039062 -4.925781 2.992188 -4.785156 2.921875 -4.546875 C 2.859375 -4.304688 2.773438 -4.007812 2.671875 -3.65625 C 2.578125 -3.300781 2.476562 -2.925781 2.375 -2.53125 C 2.28125 -2.144531 2.191406 -1.769531 2.109375 -1.40625 C 2.035156 -1.039062 1.984375 -0.738281 1.953125 -0.5 C 2.148438 -0.445312 2.367188 -0.398438 2.609375 -0.359375 C 2.859375 -0.316406 3.097656 -0.285156 3.328125 -0.265625 L 3.390625 0.0625 C 3.222656 0.0507812 2.976562 0.0390625 2.65625 0.03125 C 2.332031 0.0195312 2.007812 0.0078125 1.6875 0 C 1.375 0 1.132812 0 0.96875 0 C 0.832031 0 0.640625 0 0.390625 0 C 0.148438 0.0078125 -0.0859375 0.0195312 -0.328125 0.03125 C -0.566406 0.0390625 -0.75 0.0507812 -0.875 0.0625 L -0.828125 -0.265625 C -0.367188 -0.304688 0.0859375 -0.382812 0.546875 -0.5 C 0.628906 -0.632812 0.757812 -0.910156 0.9375 -1.328125 C 1.113281 -1.753906 1.316406 -2.257812 1.546875 -2.84375 C 1.773438 -3.4375 2.019531 -4.066406 2.28125 -4.734375 C 2.539062 -5.410156 2.796875 -6.082031 3.046875 -6.75 C 3.296875 -7.414062 3.523438 -8.03125 3.734375 -8.59375 C 3.953125 -9.15625 4.128906 -9.625 4.265625 -10 C 4.398438 -10.382812 4.484375 -10.617188 4.515625 -10.703125 C 4.347656 -10.753906 4.144531 -10.796875 3.90625 -10.828125 C 3.664062 -10.859375 3.445312 -10.882812 3.25 -10.90625 L 3.234375 -11.234375 C 3.398438 -11.222656 3.628906 -11.210938 3.921875 -11.203125 C 4.210938 -11.191406 4.492188 -11.179688 4.765625 -11.171875 C 5.046875 -11.171875 5.226562 -11.171875 5.3125 -11.171875 C 5.488281 -11.171875 5.703125 -11.171875 5.953125 -11.171875 C 6.210938 -11.179688 6.476562 -11.1875 6.75 -11.1875 C 7.03125 -11.195312 7.285156 -11.203125 7.515625 -11.203125 C 7.753906 -11.210938 7.929688 -11.222656 8.046875 -11.234375 L 8 -10.90625 C 7.800781 -10.882812 7.59375 -10.859375 7.375 -10.828125 C 7.164062 -10.796875 6.96875 -10.753906 6.78125 -10.703125 C 6.832031 -10.523438 6.914062 -10.25 7.03125 -9.875 C 7.15625 -9.507812 7.300781 -9.09375 7.46875 -8.625 C 7.632812 -8.15625 7.800781 -7.671875 7.96875 -7.171875 C 8.144531 -6.679688 8.3125 -6.226562 8.46875 -5.8125 C 8.582031 -5.5 8.722656 -5.113281 8.890625 -4.65625 C 9.054688 -4.195312 9.238281 -3.710938 9.4375 -3.203125 C 9.632812 -2.703125 9.835938 -2.210938 10.046875 -1.734375 C 10.253906 -1.253906 10.453125 -0.84375 10.640625 -0.5 C 10.867188 -0.457031 11.097656 -0.414062 11.328125 -0.375 C 11.566406 -0.332031 11.804688 -0.296875 12.046875 -0.265625 L 12.09375 0.0625 C 12.050781 0.0507812 11.925781 0.0390625 11.71875 0.03125 C 11.519531 0.03125 11.285156 0.0234375 11.015625 0.015625 C 10.742188 0.015625 10.460938 0.0078125 10.171875 0 C 9.890625 0 9.644531 0 9.4375 0 C 9.320312 0 9.140625 0 8.890625 0 C 8.640625 0.0078125 8.367188 0.015625 8.078125 0.015625 C 7.785156 0.0234375 7.515625 0.03125 7.265625 0.03125 C 7.023438 0.0390625 6.847656 0.0507812 6.734375 0.0625 Z M 6.640625 -5.65625 C 6.554688 -5.914062 6.4375 -6.265625 6.28125 -6.703125 C 6.125 -7.148438 5.960938 -7.617188 5.796875 -8.109375 C 5.628906 -8.597656 5.472656 -9.050781 5.328125 -9.46875 C 5.179688 -9.882812 5.078125 -10.203125 5.015625 -10.421875 L 4.984375 -10.421875 C 4.859375 -10.078125 4.707031 -9.664062 4.53125 -9.1875 C 4.363281 -8.707031 4.191406 -8.222656 4.015625 -7.734375 C 3.835938 -7.253906 3.679688 -6.828125 3.546875 -6.453125 C 3.421875 -6.085938 3.335938 -5.84375 3.296875 -5.71875 Z M 6.640625 -5.65625 "/></g></g></g></g></g></svg>