<svg xmlns="http://www.w3.org/2000/svg" xmlns:xlink="http://www.w3.org/1999/xlink" width="490" zoomAndPan="magnify" viewBox="3 6 24.5 16" height="320" preserveAspectRatio="xMidYMid meet" version="1.0"><defs><clipPath id="a35ee65855"><path d="M 12.542969 7.148438 L 18.027344 7.148438 L 18.027344 10.125 L 12.542969 10.125 Z M 12.542969 7.148438 " clip-rule="nonzero"/></clipPath><clipPath id="977b7eea7e"><path d="M 16.414062 10 L 20.578125 10 L 20.578125 16.253906 L 16.414062 16.253906 Z M 16.414062 10 " clip-rule="nonzero"/></clipPath><clipPath id="e230dbfc61"><path d="M 10.195312 10 L 14.480469 10 L 14.480469 16.253906 L 10.195312 16.253906 Z M 10.195312 10 " clip-rule="nonzero"/></clipPath><clipPath id="44e2c9b7f9"><path d="M 13 16 L 14.15625 16 L 14.15625 16.570312 L 13 16.570312 Z M 13 16 " clip-rule="nonzero"/></clipPath><clipPath id="c8208f8e45"><path d="M 16.414062 16 L 17.707031 16 L 17.707031 16.570312 L 16.414062 16.570312 Z M 16.414062 16 " clip-rule="nonzero"/></clipPath></defs><g clip-path="url(#a35ee65855)"><path fill="#042f69" d="M 12.855469 9.097656 C 12.949219 9.167969 13.0625 9.175781 13.199219 9.125 C 13.207031 9.121094 13.214844 9.121094 13.222656 9.128906 C 13.59375 9.441406 14.019531 9.550781 14.5 9.449219 C 14.605469 9.425781 14.703125 9.394531 14.796875 9.347656 C 14.886719 9.304688 14.972656 9.320312 15.050781 9.398438 C 15.058594 9.40625 15.09375 9.433594 15.152344 9.472656 C 15.195312 9.503906 15.222656 9.53125 15.238281 9.5625 C 15.269531 9.625 15.261719 9.679688 15.207031 9.730469 C 15.207031 9.730469 15.179688 9.746094 15.121094 9.78125 C 15.082031 9.804688 15.054688 9.839844 15.035156 9.878906 C 15.015625 9.910156 15.023438 9.9375 15.046875 9.960938 C 15.082031 9.996094 15.125 10.015625 15.179688 10.019531 C 15.300781 10.027344 15.425781 10.023438 15.546875 10.011719 C 15.59375 10.007812 15.632812 9.996094 15.660156 9.976562 C 15.710938 9.941406 15.714844 9.894531 15.671875 9.839844 C 15.660156 9.820312 15.636719 9.804688 15.597656 9.78125 C 15.570312 9.765625 15.542969 9.746094 15.519531 9.726562 C 15.46875 9.679688 15.457031 9.625 15.492188 9.558594 C 15.515625 9.511719 15.550781 9.480469 15.589844 9.460938 C 15.640625 9.441406 15.679688 9.414062 15.710938 9.382812 C 15.773438 9.320312 15.84375 9.304688 15.925781 9.34375 C 16.257812 9.496094 16.601562 9.527344 16.957031 9.441406 C 17.160156 9.394531 17.34375 9.292969 17.503906 9.144531 C 17.511719 9.132812 17.527344 9.132812 17.539062 9.136719 C 17.652344 9.179688 17.757812 9.167969 17.855469 9.105469 C 17.910156 9.070312 17.953125 9.023438 17.976562 8.960938 C 18 8.90625 18.011719 8.84375 18.003906 8.777344 C 17.984375 8.621094 17.910156 8.523438 17.773438 8.488281 C 17.652344 8.453125 17.542969 8.472656 17.457031 8.546875 C 17.351562 8.625 17.3125 8.753906 17.332031 8.925781 C 17.332031 8.941406 17.324219 8.957031 17.3125 8.96875 C 17.125 9.128906 16.914062 9.191406 16.683594 9.164062 C 16.621094 9.152344 16.539062 9.128906 16.4375 9.082031 C 16.320312 9.03125 16.203125 8.988281 16.082031 8.945312 C 16.011719 8.921875 15.949219 8.90625 15.902344 8.902344 C 15.84375 8.894531 15.78125 8.894531 15.714844 8.898438 C 15.707031 8.898438 15.699219 8.898438 15.691406 8.890625 C 15.667969 8.875 15.644531 8.855469 15.621094 8.835938 C 15.589844 8.8125 15.566406 8.792969 15.550781 8.773438 C 15.496094 8.695312 15.507812 8.621094 15.589844 8.546875 C 15.609375 8.527344 15.65625 8.492188 15.734375 8.441406 C 15.792969 8.398438 15.839844 8.359375 15.871094 8.324219 C 16 8.175781 16.054688 8.007812 16.039062 7.820312 C 16.027344 7.6875 15.988281 7.574219 15.921875 7.46875 C 15.851562 7.355469 15.753906 7.273438 15.628906 7.21875 C 15.503906 7.160156 15.371094 7.148438 15.238281 7.175781 C 15.117188 7.203125 15.007812 7.257812 14.914062 7.347656 C 14.816406 7.433594 14.75 7.546875 14.71875 7.675781 C 14.632812 8.007812 14.734375 8.265625 15.027344 8.449219 C 15.070312 8.476562 15.109375 8.503906 15.144531 8.539062 C 15.222656 8.613281 15.234375 8.691406 15.179688 8.769531 C 15.167969 8.785156 15.148438 8.808594 15.117188 8.835938 C 15.09375 8.851562 15.070312 8.875 15.046875 8.894531 C 15.042969 8.898438 15.035156 8.902344 15.027344 8.898438 C 14.976562 8.886719 14.925781 8.882812 14.871094 8.890625 C 14.765625 8.90625 14.664062 8.933594 14.566406 8.976562 C 14.472656 9.019531 14.378906 9.054688 14.285156 9.09375 C 13.964844 9.214844 13.671875 9.167969 13.402344 8.949219 C 13.390625 8.941406 13.386719 8.925781 13.386719 8.914062 C 13.40625 8.78125 13.378906 8.671875 13.308594 8.589844 C 13.257812 8.527344 13.195312 8.492188 13.121094 8.472656 C 13.039062 8.453125 12.960938 8.46875 12.886719 8.515625 C 12.757812 8.59375 12.703125 8.699219 12.714844 8.832031 C 12.730469 8.945312 12.777344 9.03125 12.855469 9.097656 Z M 15.210938 8.261719 C 15.183594 8.246094 15.148438 8.21875 15.113281 8.1875 C 15.027344 8.117188 14.980469 8.03125 14.96875 7.925781 C 14.953125 7.757812 15.011719 7.625 15.148438 7.53125 C 15.304688 7.425781 15.457031 7.425781 15.605469 7.535156 C 15.65625 7.570312 15.695312 7.621094 15.726562 7.679688 C 15.753906 7.734375 15.769531 7.792969 15.769531 7.859375 C 15.777344 8.035156 15.695312 8.167969 15.523438 8.257812 C 15.507812 8.261719 15.492188 8.261719 15.480469 8.25 C 15.394531 8.171875 15.3125 8.171875 15.230469 8.257812 C 15.226562 8.261719 15.21875 8.265625 15.210938 8.261719 Z M 15.210938 8.261719 " fill-opacity="1" fill-rule="nonzero"/></g><path fill="#042f69" d="M 17.660156 9.203125 L 17.570312 9.199219 C 17.546875 9.195312 17.527344 9.207031 17.519531 9.226562 L 16.496094 12.707031 C 16.492188 12.714844 16.488281 12.722656 16.480469 12.722656 L 16.40625 12.726562 C 16.402344 12.726562 16.402344 12.726562 16.398438 12.726562 C 16.386719 12.730469 16.382812 12.742188 16.382812 12.75 C 16.484375 13.058594 16.660156 13.300781 16.917969 13.46875 C 17.054688 13.5625 17.203125 13.625 17.367188 13.65625 C 17.636719 13.714844 17.894531 13.683594 18.140625 13.570312 C 18.292969 13.5 18.425781 13.40625 18.539062 13.285156 C 18.683594 13.132812 18.792969 12.953125 18.863281 12.746094 C 18.863281 12.742188 18.863281 12.742188 18.863281 12.742188 C 18.863281 12.734375 18.859375 12.726562 18.851562 12.726562 L 18.761719 12.726562 C 18.75 12.726562 18.738281 12.71875 18.734375 12.707031 L 17.695312 9.226562 C 17.691406 9.214844 17.675781 9.207031 17.660156 9.203125 Z M 18.632812 12.726562 C 18.632812 12.726562 18.632812 12.726562 18.628906 12.726562 L 16.601562 12.726562 C 16.59375 12.726562 16.589844 12.722656 16.589844 12.714844 L 17.589844 9.300781 C 17.601562 9.269531 17.609375 9.269531 17.621094 9.300781 L 18.636719 12.714844 C 18.640625 12.71875 18.636719 12.726562 18.632812 12.726562 Z M 18.632812 12.726562 " fill-opacity="1" fill-rule="nonzero"/><path fill="#042f69" d="M 12.398438 13.460938 C 12.539062 13.554688 12.6875 13.617188 12.851562 13.652344 C 13.058594 13.695312 13.265625 13.6875 13.46875 13.625 C 13.628906 13.578125 13.773438 13.5 13.90625 13.398438 C 14.113281 13.234375 14.257812 13.015625 14.34375 12.746094 C 14.34375 12.746094 14.34375 12.742188 14.34375 12.742188 C 14.34375 12.734375 14.339844 12.726562 14.328125 12.726562 L 14.257812 12.726562 C 14.25 12.726562 14.242188 12.722656 14.242188 12.714844 L 13.214844 9.234375 C 13.210938 9.226562 13.203125 9.222656 13.191406 9.222656 L 13.042969 9.25 C 13.035156 9.25 13.027344 9.253906 13.023438 9.261719 L 12.003906 12.714844 C 12.003906 12.722656 11.996094 12.726562 11.992188 12.726562 L 11.878906 12.726562 C 11.871094 12.730469 11.867188 12.734375 11.871094 12.742188 C 11.96875 13.050781 12.144531 13.289062 12.398438 13.460938 Z M 12.101562 12.710938 C 12.320312 11.980469 12.535156 11.257812 12.746094 10.535156 C 12.867188 10.132812 12.984375 9.726562 13.101562 9.320312 C 13.113281 9.277344 13.125 9.277344 13.136719 9.320312 L 14.144531 12.710938 C 14.144531 12.71875 14.140625 12.722656 14.136719 12.726562 C 14.132812 12.726562 14.132812 12.726562 14.132812 12.726562 L 12.113281 12.726562 C 12.109375 12.726562 12.101562 12.722656 12.101562 12.714844 C 12.101562 12.710938 12.101562 12.710938 12.101562 12.710938 Z M 12.101562 12.710938 " fill-opacity="1" fill-rule="nonzero"/><path fill="#042f69" d="M 11.160156 10.894531 C 11.160156 10.902344 11.160156 10.902344 11.167969 10.898438 C 11.191406 10.882812 11.21875 10.867188 11.25 10.851562 C 11.289062 10.832031 11.316406 10.816406 11.332031 10.804688 C 11.488281 10.699219 11.589844 10.5625 11.640625 10.394531 C 11.707031 10.171875 11.730469 9.941406 11.707031 9.710938 C 11.707031 9.707031 11.707031 9.703125 11.703125 9.703125 C 11.699219 9.695312 11.691406 9.695312 11.683594 9.699219 C 11.632812 9.734375 11.585938 9.773438 11.542969 9.816406 C 11.515625 9.847656 11.476562 9.890625 11.421875 9.957031 C 11.304688 10.09375 11.226562 10.230469 11.183594 10.371094 C 11.152344 10.484375 11.136719 10.574219 11.144531 10.640625 C 11.152344 10.722656 11.160156 10.804688 11.160156 10.894531 Z M 11.160156 10.894531 " fill-opacity="1" fill-rule="nonzero"/><path fill="#042f69" d="M 19.332031 10.742188 C 19.40625 10.808594 19.488281 10.859375 19.578125 10.902344 C 19.585938 10.90625 19.589844 10.902344 19.585938 10.894531 C 19.578125 10.859375 19.578125 10.824219 19.585938 10.789062 C 19.613281 10.625 19.597656 10.460938 19.53125 10.304688 C 19.433594 10.082031 19.285156 9.886719 19.085938 9.714844 C 19.058594 9.691406 19.042969 9.695312 19.035156 9.734375 C 19.011719 9.9375 19.03125 10.148438 19.089844 10.363281 C 19.132812 10.515625 19.214844 10.640625 19.332031 10.742188 Z M 19.332031 10.742188 " fill-opacity="1" fill-rule="nonzero"/><g clip-path="url(#977b7eea7e)"><path fill="#042f69" d="M 20.507812 12.300781 C 20.28125 12.390625 20.089844 12.527344 19.941406 12.71875 C 19.882812 12.789062 19.839844 12.863281 19.8125 12.9375 C 19.785156 13.019531 19.769531 13.105469 19.769531 13.195312 C 19.769531 13.203125 19.765625 13.210938 19.761719 13.214844 C 19.722656 13.261719 19.667969 13.304688 19.597656 13.339844 C 19.589844 13.34375 19.585938 13.339844 19.589844 13.328125 C 19.679688 13.027344 19.738281 12.722656 19.777344 12.421875 C 19.777344 12.410156 19.78125 12.40625 19.785156 12.398438 C 19.859375 12.332031 19.902344 12.28125 19.921875 12.253906 C 19.941406 12.214844 19.980469 12.183594 20.039062 12.15625 C 20.140625 12.113281 20.21875 12.042969 20.285156 11.953125 C 20.335938 11.882812 20.375 11.789062 20.40625 11.671875 C 20.457031 11.476562 20.472656 11.269531 20.453125 11.0625 C 20.453125 11.039062 20.441406 11.035156 20.425781 11.050781 C 20.246094 11.191406 20.101562 11.363281 19.992188 11.570312 C 19.902344 11.738281 19.875 11.910156 19.902344 12.09375 C 19.910156 12.136719 19.90625 12.171875 19.890625 12.195312 C 19.875 12.230469 19.847656 12.257812 19.808594 12.277344 C 19.796875 12.285156 19.792969 12.28125 19.792969 12.269531 C 19.808594 11.976562 19.808594 11.6875 19.792969 11.398438 C 19.792969 11.378906 19.796875 11.363281 19.804688 11.347656 C 19.859375 11.246094 19.921875 11.171875 19.996094 11.121094 C 20.078125 11.0625 20.132812 10.988281 20.167969 10.894531 C 20.210938 10.78125 20.234375 10.660156 20.226562 10.535156 C 20.222656 10.359375 20.1875 10.1875 20.125 10.015625 C 20.117188 10 20.109375 9.996094 20.09375 10.011719 C 19.9375 10.210938 19.839844 10.4375 19.792969 10.691406 C 19.773438 10.804688 19.785156 10.925781 19.828125 11.050781 C 19.828125 11.050781 19.832031 11.0625 19.84375 11.082031 C 19.863281 11.136719 19.847656 11.191406 19.789062 11.242188 C 19.78125 11.246094 19.777344 11.246094 19.777344 11.234375 L 19.738281 10.941406 C 19.734375 10.929688 19.726562 10.921875 19.714844 10.921875 L 19.640625 10.921875 C 19.636719 10.921875 19.632812 10.929688 19.636719 10.933594 C 19.644531 10.953125 19.652344 10.972656 19.652344 10.992188 C 19.707031 11.335938 19.726562 11.6875 19.707031 12.050781 C 19.707031 12.0625 19.699219 12.066406 19.691406 12.058594 C 19.617188 12.003906 19.582031 11.945312 19.59375 11.875 C 19.597656 11.84375 19.597656 11.828125 19.597656 11.824219 C 19.605469 11.65625 19.558594 11.488281 19.460938 11.320312 C 19.34375 11.113281 19.1875 10.941406 18.996094 10.804688 C 18.992188 10.804688 18.992188 10.804688 18.992188 10.804688 C 18.964844 11.011719 18.984375 11.210938 19.039062 11.398438 C 19.082031 11.53125 19.136719 11.640625 19.203125 11.726562 C 19.285156 11.824219 19.382812 11.898438 19.503906 11.953125 C 19.523438 11.960938 19.539062 11.976562 19.554688 11.996094 L 19.6875 12.164062 C 19.691406 12.171875 19.695312 12.179688 19.695312 12.1875 C 19.675781 12.566406 19.609375 12.933594 19.496094 13.289062 C 19.488281 13.308594 19.480469 13.308594 19.472656 13.289062 L 19.410156 13.164062 C 19.40625 13.15625 19.40625 13.148438 19.410156 13.140625 C 19.417969 13.109375 19.425781 13.082031 19.4375 13.054688 C 19.453125 13.015625 19.460938 12.984375 19.464844 12.964844 C 19.492188 12.832031 19.480469 12.691406 19.433594 12.539062 C 19.363281 12.320312 19.25 12.125 19.09375 11.949219 C 19.070312 11.921875 19.058594 11.925781 19.046875 11.960938 C 18.988281 12.179688 18.972656 12.398438 19.003906 12.625 C 19.019531 12.738281 19.046875 12.835938 19.089844 12.90625 C 19.136719 13 19.207031 13.074219 19.292969 13.136719 C 19.320312 13.15625 19.34375 13.179688 19.355469 13.207031 C 19.390625 13.269531 19.421875 13.335938 19.449219 13.402344 C 19.453125 13.40625 19.453125 13.414062 19.453125 13.421875 C 19.359375 13.699219 19.234375 13.960938 19.078125 14.207031 C 19.078125 14.210938 19.078125 14.210938 19.074219 14.210938 C 19.070312 14.214844 19.066406 14.214844 19.0625 14.210938 C 19.035156 14.175781 19.03125 14.132812 19.0625 14.089844 C 19.109375 14.007812 19.144531 13.921875 19.15625 13.828125 C 19.167969 13.746094 19.164062 13.65625 19.144531 13.554688 C 19.097656 13.351562 19.007812 13.167969 18.871094 13.003906 C 18.851562 12.980469 18.835938 12.984375 18.828125 13.011719 C 18.746094 13.242188 18.714844 13.476562 18.738281 13.714844 C 18.753906 13.878906 18.816406 14.007812 18.925781 14.101562 C 18.972656 14.140625 19 14.1875 19.007812 14.234375 C 19.011719 14.269531 18.996094 14.3125 18.964844 14.363281 C 18.84375 14.546875 18.707031 14.71875 18.542969 14.882812 C 18.523438 14.898438 18.515625 14.894531 18.507812 14.871094 C 18.507812 14.855469 18.507812 14.839844 18.515625 14.820312 C 18.519531 14.8125 18.527344 14.796875 18.539062 14.78125 C 18.671875 14.609375 18.714844 14.414062 18.660156 14.195312 C 18.625 14.042969 18.5625 13.90625 18.464844 13.78125 C 18.464844 13.78125 18.464844 13.78125 18.460938 13.777344 C 18.457031 13.777344 18.449219 13.777344 18.449219 13.78125 C 18.324219 14.003906 18.273438 14.242188 18.289062 14.5 C 18.296875 14.609375 18.351562 14.707031 18.449219 14.792969 C 18.457031 14.796875 18.460938 14.804688 18.460938 14.8125 C 18.464844 14.851562 18.460938 14.886719 18.453125 14.921875 C 18.445312 14.957031 18.425781 14.992188 18.394531 15.019531 C 18.25 15.167969 18.085938 15.304688 17.90625 15.421875 C 17.90625 15.425781 17.902344 15.425781 17.902344 15.425781 C 17.894531 15.429688 17.886719 15.425781 17.882812 15.417969 C 17.863281 15.386719 17.871094 15.363281 17.894531 15.34375 C 17.902344 15.335938 17.910156 15.332031 17.910156 15.332031 C 18.066406 15.195312 18.148438 15.035156 18.160156 14.851562 C 18.171875 14.65625 18.160156 14.460938 18.125 14.269531 C 18.121094 14.25 18.109375 14.25 18.097656 14.261719 C 17.953125 14.390625 17.84375 14.546875 17.777344 14.726562 C 17.738281 14.824219 17.71875 14.925781 17.71875 15.027344 C 17.71875 15.121094 17.746094 15.214844 17.804688 15.304688 C 17.835938 15.355469 17.839844 15.402344 17.816406 15.445312 C 17.804688 15.476562 17.773438 15.503906 17.722656 15.53125 C 17.539062 15.644531 17.34375 15.730469 17.140625 15.796875 C 17.121094 15.804688 17.117188 15.796875 17.121094 15.78125 C 17.125 15.765625 17.132812 15.75 17.140625 15.734375 C 17.148438 15.722656 17.160156 15.710938 17.179688 15.703125 C 17.3125 15.636719 17.40625 15.550781 17.460938 15.445312 C 17.574219 15.230469 17.628906 15.003906 17.625 14.769531 C 17.625 14.765625 17.625 14.765625 17.621094 14.761719 C 17.617188 14.753906 17.609375 14.75 17.601562 14.753906 C 17.449219 14.84375 17.320312 14.957031 17.210938 15.089844 C 17.082031 15.25 17.039062 15.433594 17.078125 15.636719 C 17.09375 15.695312 17.082031 15.75 17.054688 15.804688 C 17.046875 15.820312 17.03125 15.832031 17.011719 15.839844 C 16.875 15.878906 16.734375 15.914062 16.601562 15.941406 C 16.5625 15.949219 16.554688 15.96875 16.578125 16.007812 C 16.585938 16.019531 16.601562 16.023438 16.617188 16.023438 C 16.882812 15.976562 17.140625 15.898438 17.382812 15.796875 C 17.394531 15.789062 17.414062 15.789062 17.425781 15.792969 C 17.46875 15.808594 17.503906 15.828125 17.535156 15.84375 C 17.5625 15.859375 17.589844 15.882812 17.617188 15.921875 C 17.667969 15.992188 17.730469 16.046875 17.800781 16.085938 C 17.867188 16.121094 17.941406 16.140625 18.03125 16.152344 C 18.246094 16.171875 18.441406 16.121094 18.628906 15.996094 C 18.632812 15.996094 18.632812 15.992188 18.636719 15.988281 C 18.644531 15.976562 18.636719 15.957031 18.625 15.949219 C 18.488281 15.875 18.347656 15.816406 18.199219 15.777344 C 18.011719 15.726562 17.828125 15.730469 17.648438 15.785156 C 17.601562 15.796875 17.5625 15.789062 17.523438 15.761719 C 17.519531 15.761719 17.519531 15.757812 17.515625 15.757812 C 17.511719 15.75 17.515625 15.742188 17.523438 15.738281 C 17.699219 15.648438 17.871094 15.550781 18.039062 15.4375 C 18.039062 15.4375 18.050781 15.425781 18.082031 15.402344 C 18.121094 15.371094 18.167969 15.359375 18.210938 15.371094 C 18.234375 15.378906 18.273438 15.402344 18.332031 15.453125 C 18.457031 15.550781 18.605469 15.59375 18.769531 15.578125 C 18.972656 15.554688 19.148438 15.476562 19.304688 15.339844 C 19.304688 15.339844 19.304688 15.335938 19.304688 15.335938 C 19.308594 15.332031 19.304688 15.328125 19.300781 15.324219 C 19.144531 15.246094 18.984375 15.195312 18.828125 15.175781 C 18.636719 15.152344 18.457031 15.195312 18.296875 15.308594 C 18.285156 15.3125 18.277344 15.316406 18.265625 15.320312 C 18.214844 15.324219 18.214844 15.308594 18.257812 15.273438 C 18.414062 15.136719 18.566406 14.992188 18.714844 14.839844 C 18.726562 14.828125 18.742188 14.824219 18.753906 14.824219 C 18.8125 14.824219 18.863281 14.839844 18.898438 14.859375 C 18.945312 14.886719 18.96875 14.902344 18.96875 14.902344 C 19.175781 14.988281 19.375 14.976562 19.574219 14.863281 C 19.699219 14.792969 19.816406 14.703125 19.917969 14.601562 C 19.925781 14.59375 19.921875 14.585938 19.910156 14.582031 C 19.742188 14.550781 19.574219 14.535156 19.40625 14.539062 C 19.222656 14.546875 19.070312 14.601562 18.949219 14.707031 C 18.949219 14.707031 18.9375 14.722656 18.914062 14.742188 C 18.882812 14.773438 18.84375 14.785156 18.792969 14.773438 C 18.785156 14.769531 18.785156 14.761719 18.789062 14.757812 L 19.214844 14.175781 C 19.222656 14.167969 19.226562 14.164062 19.234375 14.160156 C 19.269531 14.152344 19.3125 14.152344 19.359375 14.164062 C 19.625 14.226562 19.859375 14.164062 20.050781 13.964844 C 20.179688 13.835938 20.28125 13.695312 20.359375 13.546875 C 20.371094 13.523438 20.363281 13.511719 20.335938 13.515625 C 20.171875 13.527344 20.015625 13.566406 19.871094 13.621094 C 19.652344 13.710938 19.484375 13.855469 19.363281 14.058594 C 19.339844 14.097656 19.308594 14.113281 19.261719 14.109375 C 19.253906 14.105469 19.25 14.09375 19.253906 14.085938 C 19.367188 13.878906 19.460938 13.671875 19.542969 13.460938 C 19.546875 13.445312 19.554688 13.4375 19.570312 13.429688 C 19.664062 13.378906 19.75 13.328125 19.816406 13.265625 C 19.824219 13.261719 19.832031 13.257812 19.839844 13.257812 C 20.078125 13.207031 20.25 13.074219 20.359375 12.855469 C 20.445312 12.691406 20.503906 12.511719 20.535156 12.324219 C 20.539062 12.300781 20.53125 12.292969 20.507812 12.300781 Z M 20.507812 12.300781 " fill-opacity="1" fill-rule="nonzero"/></g><g clip-path="url(#e230dbfc61)"><path fill="#042f69" d="M 14.140625 15.941406 C 14.09375 15.933594 13.980469 15.90625 13.792969 15.851562 C 13.734375 15.835938 13.699219 15.824219 13.6875 15.816406 C 13.65625 15.792969 13.636719 15.757812 13.636719 15.707031 C 13.636719 15.679688 13.640625 15.652344 13.644531 15.628906 C 13.675781 15.492188 13.660156 15.363281 13.605469 15.25 C 13.5 15.027344 13.335938 14.863281 13.113281 14.757812 C 13.113281 14.757812 13.113281 14.757812 13.109375 14.757812 C 13.105469 14.757812 13.101562 14.761719 13.101562 14.765625 C 13.105469 14.910156 13.125 15.058594 13.167969 15.214844 C 13.230469 15.4375 13.359375 15.605469 13.558594 15.710938 C 13.585938 15.726562 13.597656 15.75 13.59375 15.78125 C 13.59375 15.78125 13.59375 15.78125 13.589844 15.78125 C 13.589844 15.789062 13.582031 15.789062 13.578125 15.789062 C 13.359375 15.714844 13.160156 15.628906 12.984375 15.527344 C 12.925781 15.488281 12.894531 15.441406 12.902344 15.378906 C 12.90625 15.359375 12.925781 15.316406 12.964844 15.242188 C 13.011719 15.148438 13.027344 15.058594 13.015625 14.96875 C 12.976562 14.714844 12.855469 14.484375 12.652344 14.269531 C 12.632812 14.253906 12.621094 14.257812 12.613281 14.28125 C 12.566406 14.460938 12.550781 14.65625 12.566406 14.859375 C 12.582031 15.058594 12.671875 15.214844 12.828125 15.332031 C 12.859375 15.355469 12.867188 15.386719 12.847656 15.417969 C 12.847656 15.425781 12.839844 15.425781 12.832031 15.421875 C 12.648438 15.316406 12.484375 15.1875 12.335938 15.035156 C 12.308594 15.003906 12.285156 14.96875 12.277344 14.941406 C 12.269531 14.90625 12.269531 14.867188 12.269531 14.828125 C 12.269531 14.816406 12.273438 14.804688 12.28125 14.796875 C 12.378906 14.695312 12.429688 14.585938 12.433594 14.464844 C 12.449219 14.222656 12.402344 13.996094 12.292969 13.78125 C 12.289062 13.78125 12.289062 13.78125 12.289062 13.78125 C 12.285156 13.777344 12.28125 13.777344 12.277344 13.78125 C 12.1875 13.882812 12.121094 14.011719 12.074219 14.164062 C 12.003906 14.410156 12.046875 14.625 12.207031 14.808594 C 12.226562 14.832031 12.226562 14.859375 12.207031 14.890625 C 12.207031 14.894531 12.207031 14.894531 12.207031 14.894531 C 12.203125 14.898438 12.195312 14.898438 12.191406 14.894531 C 12.03125 14.734375 11.882812 14.558594 11.761719 14.367188 C 11.742188 14.339844 11.734375 14.3125 11.730469 14.289062 C 11.730469 14.257812 11.734375 14.226562 11.746094 14.199219 C 11.753906 14.179688 11.777344 14.144531 11.820312 14.101562 C 11.941406 13.964844 12.003906 13.796875 12.003906 13.589844 C 12.003906 13.394531 11.96875 13.199219 11.894531 13.007812 C 11.886719 12.980469 11.871094 12.980469 11.855469 13 C 11.730469 13.160156 11.644531 13.335938 11.59375 13.535156 C 11.542969 13.738281 11.566406 13.925781 11.667969 14.101562 C 11.6875 14.140625 11.699219 14.160156 11.699219 14.164062 C 11.703125 14.183594 11.699219 14.207031 11.683594 14.238281 C 11.679688 14.246094 11.675781 14.246094 11.667969 14.238281 C 11.503906 13.976562 11.371094 13.707031 11.28125 13.421875 C 11.277344 13.414062 11.277344 13.40625 11.28125 13.402344 L 11.378906 13.1875 C 11.386719 13.171875 11.398438 13.15625 11.410156 13.144531 C 11.554688 13.054688 11.648438 12.921875 11.6875 12.742188 C 11.75 12.480469 11.746094 12.214844 11.675781 11.949219 C 11.667969 11.921875 11.652344 11.917969 11.632812 11.941406 C 11.46875 12.125 11.347656 12.335938 11.273438 12.574219 C 11.210938 12.765625 11.226562 12.953125 11.316406 13.132812 C 11.320312 13.140625 11.324219 13.148438 11.320312 13.152344 L 11.257812 13.289062 C 11.25 13.300781 11.246094 13.300781 11.238281 13.285156 C 11.214844 13.238281 11.195312 13.191406 11.183594 13.140625 C 11.105469 12.84375 11.058594 12.53125 11.046875 12.199219 C 11.046875 12.183594 11.050781 12.167969 11.058594 12.15625 C 11.105469 12.101562 11.140625 12.054688 11.167969 12.015625 C 11.191406 11.984375 11.21875 11.957031 11.257812 11.941406 C 11.292969 11.921875 11.3125 11.914062 11.3125 11.914062 C 11.441406 11.84375 11.535156 11.753906 11.601562 11.648438 C 11.6875 11.503906 11.738281 11.339844 11.75 11.15625 C 11.753906 11.085938 11.753906 11.027344 11.753906 10.988281 C 11.757812 10.941406 11.753906 10.882812 11.746094 10.824219 C 11.746094 10.820312 11.746094 10.816406 11.742188 10.816406 C 11.738281 10.808594 11.730469 10.808594 11.722656 10.8125 C 11.578125 10.914062 11.449219 11.042969 11.339844 11.195312 C 11.253906 11.316406 11.191406 11.445312 11.152344 11.589844 C 11.128906 11.683594 11.125 11.777344 11.136719 11.871094 C 11.152344 11.957031 11.125 12.019531 11.054688 12.058594 C 11.050781 12.058594 11.050781 12.0625 11.050781 12.0625 C 11.046875 12.0625 11.042969 12.058594 11.042969 12.054688 C 11.03125 11.679688 11.0625 11.304688 11.132812 10.9375 C 11.132812 10.929688 11.128906 10.921875 11.121094 10.917969 C 11.101562 10.910156 11.078125 10.910156 11.054688 10.917969 C 11.046875 10.917969 11.042969 10.925781 11.039062 10.933594 L 10.992188 11.261719 C 10.992188 11.265625 10.992188 11.265625 10.988281 11.265625 C 10.988281 11.269531 10.984375 11.269531 10.980469 11.269531 C 10.949219 11.246094 10.925781 11.21875 10.914062 11.183594 C 10.90625 11.15625 10.910156 11.121094 10.925781 11.078125 C 10.976562 10.925781 10.984375 10.773438 10.949219 10.625 C 10.898438 10.402344 10.800781 10.199219 10.667969 10.015625 C 10.652344 9.996094 10.640625 10 10.628906 10.023438 C 10.550781 10.21875 10.515625 10.421875 10.527344 10.632812 C 10.535156 10.75 10.550781 10.839844 10.585938 10.914062 C 10.628906 11.003906 10.691406 11.078125 10.773438 11.136719 C 10.8125 11.164062 10.84375 11.191406 10.863281 11.21875 C 10.902344 11.273438 10.9375 11.324219 10.972656 11.378906 C 10.976562 11.386719 10.976562 11.394531 10.976562 11.402344 C 10.957031 11.695312 10.949219 11.988281 10.953125 12.28125 C 10.953125 12.28125 10.953125 12.285156 10.953125 12.285156 C 10.949219 12.289062 10.945312 12.289062 10.941406 12.289062 C 10.855469 12.25 10.816406 12.191406 10.832031 12.105469 C 10.859375 11.925781 10.839844 11.773438 10.78125 11.636719 C 10.671875 11.40625 10.515625 11.210938 10.316406 11.050781 C 10.304688 11.039062 10.296875 11.042969 10.292969 11.0625 C 10.277344 11.214844 10.277344 11.367188 10.300781 11.519531 C 10.324219 11.679688 10.367188 11.808594 10.429688 11.910156 C 10.507812 12.03125 10.613281 12.125 10.753906 12.191406 C 10.773438 12.199219 10.785156 12.214844 10.796875 12.230469 C 10.84375 12.296875 10.894531 12.351562 10.945312 12.390625 C 10.957031 12.398438 10.964844 12.410156 10.964844 12.425781 C 10.992188 12.722656 11.054688 13.019531 11.144531 13.316406 C 11.148438 13.332031 11.144531 13.335938 11.128906 13.332031 C 11.078125 13.308594 11.035156 13.277344 11.003906 13.238281 C 10.984375 13.214844 10.976562 13.183594 10.972656 13.140625 C 10.960938 12.984375 10.910156 12.851562 10.824219 12.742188 C 10.667969 12.546875 10.472656 12.398438 10.238281 12.308594 C 10.207031 12.296875 10.195312 12.304688 10.203125 12.339844 C 10.230469 12.5 10.277344 12.652344 10.351562 12.792969 C 10.410156 12.914062 10.480469 13.011719 10.554688 13.082031 C 10.648438 13.160156 10.753906 13.21875 10.875 13.253906 C 10.910156 13.261719 10.941406 13.277344 10.972656 13.296875 C 11.027344 13.34375 11.09375 13.386719 11.164062 13.429688 C 11.175781 13.4375 11.183594 13.449219 11.1875 13.460938 C 11.269531 13.667969 11.363281 13.875 11.476562 14.082031 C 11.476562 14.085938 11.476562 14.085938 11.476562 14.089844 C 11.480469 14.097656 11.472656 14.109375 11.464844 14.109375 C 11.441406 14.113281 11.421875 14.109375 11.402344 14.097656 C 11.390625 14.089844 11.378906 14.074219 11.367188 14.050781 C 11.296875 13.929688 11.214844 13.835938 11.121094 13.769531 C 10.902344 13.621094 10.660156 13.535156 10.390625 13.515625 C 10.367188 13.515625 10.359375 13.523438 10.371094 13.546875 C 10.433594 13.664062 10.507812 13.773438 10.59375 13.875 C 10.699219 13.996094 10.796875 14.078125 10.898438 14.125 C 11.039062 14.195312 11.199219 14.207031 11.367188 14.167969 C 11.410156 14.15625 11.441406 14.152344 11.472656 14.152344 C 11.492188 14.152344 11.515625 14.164062 11.527344 14.183594 C 11.648438 14.378906 11.785156 14.566406 11.933594 14.738281 C 11.957031 14.765625 11.953125 14.777344 11.921875 14.777344 C 11.914062 14.777344 11.902344 14.777344 11.890625 14.78125 C 11.878906 14.78125 11.871094 14.785156 11.859375 14.78125 C 11.847656 14.777344 11.835938 14.769531 11.824219 14.757812 C 11.761719 14.6875 11.691406 14.636719 11.613281 14.605469 C 11.507812 14.5625 11.398438 14.539062 11.273438 14.539062 C 11.121094 14.535156 10.96875 14.546875 10.816406 14.582031 C 10.800781 14.585938 10.800781 14.59375 10.8125 14.605469 C 10.929688 14.730469 11.066406 14.828125 11.226562 14.898438 C 11.417969 14.984375 11.609375 14.976562 11.792969 14.882812 C 11.792969 14.882812 11.804688 14.875 11.828125 14.859375 C 11.863281 14.835938 11.914062 14.828125 11.980469 14.832031 C 11.996094 14.832031 12.011719 14.839844 12.019531 14.851562 C 12.167969 15.003906 12.324219 15.148438 12.488281 15.285156 C 12.488281 15.289062 12.492188 15.289062 12.492188 15.292969 C 12.496094 15.300781 12.492188 15.308594 12.484375 15.3125 C 12.449219 15.320312 12.417969 15.316406 12.382812 15.296875 C 12.222656 15.195312 12.046875 15.15625 11.855469 15.183594 C 11.703125 15.203125 11.554688 15.25 11.402344 15.324219 C 11.402344 15.324219 11.402344 15.328125 11.398438 15.328125 C 11.394531 15.332031 11.398438 15.339844 11.402344 15.34375 C 11.570312 15.488281 11.761719 15.566406 11.972656 15.578125 C 12.058594 15.582031 12.136719 15.574219 12.199219 15.550781 C 12.277344 15.523438 12.34375 15.484375 12.402344 15.429688 C 12.441406 15.394531 12.472656 15.371094 12.496094 15.367188 C 12.542969 15.355469 12.582031 15.363281 12.617188 15.386719 C 12.800781 15.519531 12.996094 15.636719 13.203125 15.734375 C 13.207031 15.734375 13.207031 15.734375 13.207031 15.738281 C 13.214844 15.746094 13.210938 15.753906 13.207031 15.761719 C 13.160156 15.792969 13.113281 15.796875 13.058594 15.78125 C 13.03125 15.773438 13.019531 15.769531 13.019531 15.769531 C 12.867188 15.730469 12.707031 15.734375 12.539062 15.773438 C 12.378906 15.8125 12.226562 15.867188 12.085938 15.949219 C 12.082031 15.949219 12.082031 15.953125 12.078125 15.953125 C 12.074219 15.964844 12.074219 15.976562 12.082031 15.984375 C 12.222656 16.078125 12.371094 16.136719 12.53125 16.148438 C 12.65625 16.160156 12.765625 16.144531 12.863281 16.105469 C 12.96875 16.0625 13.058594 15.984375 13.128906 15.882812 C 13.136719 15.867188 13.152344 15.859375 13.167969 15.851562 L 13.300781 15.792969 C 13.316406 15.789062 13.328125 15.789062 13.34375 15.792969 C 13.605469 15.894531 13.871094 15.972656 14.132812 16.023438 C 14.140625 16.023438 14.148438 16.023438 14.152344 16.015625 C 14.183594 15.96875 14.175781 15.945312 14.140625 15.941406 Z M 14.140625 15.941406 " fill-opacity="1" fill-rule="nonzero"/></g><path fill="#042f69" d="M 15.195312 10.097656 L 15.53125 10.097656 C 15.535156 10.097656 15.539062 10.101562 15.539062 10.105469 L 15.539062 14.324219 C 15.539062 14.328125 15.535156 14.332031 15.53125 14.332031 L 15.195312 14.332031 C 15.191406 14.332031 15.1875 14.328125 15.1875 14.324219 L 15.1875 10.105469 C 15.1875 10.101562 15.191406 10.097656 15.195312 10.097656 Z M 15.195312 10.097656 " fill-opacity="1" fill-rule="nonzero"/><path fill="#042f69" d="M 15.121094 14.605469 L 15.613281 14.605469 C 15.621094 14.605469 15.625 14.601562 15.617188 14.59375 C 15.570312 14.542969 15.546875 14.484375 15.542969 14.414062 C 15.542969 14.40625 15.539062 14.398438 15.53125 14.398438 L 15.203125 14.398438 C 15.199219 14.398438 15.191406 14.402344 15.191406 14.410156 C 15.1875 14.472656 15.160156 14.53125 15.113281 14.585938 C 15.105469 14.597656 15.109375 14.605469 15.121094 14.605469 Z M 15.121094 14.605469 " fill-opacity="1" fill-rule="nonzero"/><path fill="#042f69" d="M 14.851562 15.257812 C 14.824219 15.28125 14.796875 15.300781 14.765625 15.316406 C 14.6875 15.351562 14.613281 15.394531 14.546875 15.445312 C 14.464844 15.511719 14.445312 15.585938 14.488281 15.671875 C 14.496094 15.6875 14.511719 15.707031 14.539062 15.730469 C 14.558594 15.753906 14.574219 15.773438 14.589844 15.792969 C 14.597656 15.804688 14.613281 15.8125 14.625 15.8125 C 15.125 15.820312 15.601562 15.820312 16.0625 15.816406 C 16.0625 15.816406 16.070312 15.820312 16.085938 15.820312 C 16.113281 15.824219 16.132812 15.808594 16.144531 15.78125 C 16.152344 15.769531 16.160156 15.761719 16.167969 15.753906 C 16.269531 15.660156 16.289062 15.570312 16.222656 15.484375 C 16.203125 15.453125 16.160156 15.417969 16.09375 15.378906 C 16.046875 15.347656 15.996094 15.320312 15.949219 15.289062 C 15.890625 15.257812 15.851562 15.226562 15.835938 15.203125 C 15.804688 15.148438 15.8125 15.09375 15.859375 15.039062 C 15.921875 14.960938 15.9375 14.886719 15.902344 14.816406 C 15.875 14.769531 15.828125 14.730469 15.761719 14.707031 C 15.707031 14.683594 15.644531 14.671875 15.582031 14.671875 C 15.515625 14.675781 15.484375 14.675781 15.480469 14.675781 C 15.285156 14.667969 15.15625 14.667969 15.09375 14.675781 C 15.015625 14.6875 14.964844 14.703125 14.929688 14.722656 C 14.808594 14.789062 14.777344 14.882812 14.839844 14.992188 C 14.84375 14.996094 14.855469 15.015625 14.886719 15.054688 C 14.914062 15.089844 14.921875 15.132812 14.910156 15.175781 C 14.902344 15.207031 14.882812 15.234375 14.851562 15.257812 Z M 14.851562 15.257812 " fill-opacity="1" fill-rule="nonzero"/><path fill="#042f69" d="M 14.421875 15.835938 C 14.433594 15.832031 14.4375 15.820312 14.4375 15.8125 C 14.421875 15.628906 14.351562 15.472656 14.234375 15.347656 C 14.113281 15.222656 13.980469 15.125 13.824219 15.050781 C 13.824219 15.050781 13.820312 15.050781 13.820312 15.050781 C 13.816406 15.050781 13.8125 15.054688 13.8125 15.058594 C 13.8125 15.226562 13.84375 15.386719 13.90625 15.542969 C 13.9375 15.625 13.988281 15.703125 14.0625 15.769531 C 14.132812 15.835938 14.207031 15.882812 14.292969 15.90625 C 14.300781 15.910156 14.304688 15.90625 14.3125 15.902344 Z M 14.421875 15.835938 " fill-opacity="1" fill-rule="nonzero"/><path fill="#042f69" d="M 16.835938 15.515625 C 16.882812 15.375 16.910156 15.226562 16.921875 15.070312 C 16.921875 15.066406 16.917969 15.066406 16.917969 15.0625 C 16.917969 15.054688 16.90625 15.050781 16.898438 15.054688 C 16.765625 15.121094 16.648438 15.203125 16.542969 15.304688 C 16.46875 15.378906 16.410156 15.457031 16.375 15.539062 C 16.332031 15.628906 16.308594 15.722656 16.304688 15.824219 C 16.304688 15.828125 16.308594 15.835938 16.3125 15.839844 L 16.429688 15.902344 C 16.4375 15.90625 16.445312 15.90625 16.449219 15.90625 C 16.640625 15.835938 16.765625 15.707031 16.835938 15.515625 Z M 16.835938 15.515625 " fill-opacity="1" fill-rule="nonzero"/><path fill="#042f69" d="M 14.425781 15.878906 L 16.316406 15.878906 C 16.351562 15.878906 16.378906 15.890625 16.402344 15.914062 C 16.425781 15.9375 16.4375 15.96875 16.4375 16 L 16.4375 16.003906 C 16.4375 16.039062 16.425781 16.066406 16.402344 16.089844 C 16.378906 16.113281 16.351562 16.125 16.316406 16.125 L 14.425781 16.125 C 14.394531 16.125 14.363281 16.113281 14.339844 16.089844 C 14.316406 16.066406 14.304688 16.039062 14.304688 16.003906 L 14.304688 16 C 14.304688 15.96875 14.316406 15.9375 14.339844 15.914062 C 14.363281 15.890625 14.394531 15.878906 14.425781 15.878906 Z M 14.425781 15.878906 " fill-opacity="1" fill-rule="nonzero"/><g clip-path="url(#44e2c9b7f9)"><path fill="#042f69" d="M 14.070312 16.085938 C 13.875 16.058594 13.699219 16.085938 13.546875 16.171875 C 13.382812 16.261719 13.238281 16.378906 13.117188 16.523438 C 13.113281 16.523438 13.113281 16.527344 13.113281 16.527344 C 13.105469 16.539062 13.113281 16.554688 13.125 16.558594 C 13.183594 16.585938 13.246094 16.601562 13.3125 16.605469 C 13.699219 16.621094 13.953125 16.453125 14.078125 16.101562 C 14.078125 16.09375 14.074219 16.089844 14.070312 16.085938 Z M 14.070312 16.085938 " fill-opacity="1" fill-rule="nonzero"/></g><g clip-path="url(#c8208f8e45)"><path fill="#042f69" d="M 17.15625 16.167969 C 17.074219 16.125 16.996094 16.101562 16.917969 16.089844 C 16.832031 16.078125 16.75 16.078125 16.664062 16.089844 C 16.660156 16.089844 16.660156 16.089844 16.660156 16.089844 C 16.652344 16.09375 16.648438 16.101562 16.648438 16.105469 C 16.695312 16.246094 16.773438 16.359375 16.882812 16.445312 C 17.078125 16.597656 17.304688 16.640625 17.5625 16.570312 C 17.601562 16.5625 17.605469 16.542969 17.582031 16.511719 C 17.472656 16.371094 17.328125 16.253906 17.15625 16.167969 Z M 17.15625 16.167969 " fill-opacity="1" fill-rule="nonzero"/></g><path fill="#042f69" d="M 15.292969 8.113281 C 15.324219 8.136719 15.355469 8.140625 15.394531 8.128906 C 15.488281 8.09375 15.523438 8.03125 15.488281 7.9375 C 15.484375 7.921875 15.46875 7.894531 15.4375 7.851562 C 15.417969 7.820312 15.40625 7.789062 15.402344 7.761719 C 15.398438 7.71875 15.386719 7.675781 15.371094 7.636719 C 15.359375 7.613281 15.351562 7.613281 15.34375 7.636719 C 15.328125 7.675781 15.320312 7.714844 15.316406 7.753906 C 15.3125 7.792969 15.296875 7.828125 15.277344 7.859375 C 15.246094 7.90625 15.230469 7.929688 15.230469 7.929688 C 15.199219 7.996094 15.222656 8.058594 15.292969 8.113281 Z M 15.292969 8.113281 " fill-opacity="1" fill-rule="nonzero"/><path fill="#042f69" d="M 3.984375 19.308594 L 3.984375 19.011719 C 3.984375 18.9375 3.984375 18.839844 3.984375 18.71875 C 3.984375 18.597656 3.984375 18.46875 3.980469 18.335938 C 3.976562 18.203125 3.972656 18.082031 3.972656 17.980469 C 3.972656 17.871094 3.964844 17.796875 3.957031 17.753906 C 3.917969 17.746094 3.863281 17.738281 3.792969 17.726562 C 3.722656 17.71875 3.652344 17.710938 3.578125 17.703125 C 3.507812 17.691406 3.449219 17.6875 3.40625 17.683594 L 3.390625 17.574219 C 3.433594 17.578125 3.507812 17.582031 3.609375 17.585938 C 3.710938 17.589844 3.824219 17.59375 3.945312 17.597656 C 4.066406 17.597656 4.179688 17.597656 4.285156 17.597656 C 4.402344 17.597656 4.523438 17.597656 4.65625 17.597656 C 4.789062 17.59375 4.910156 17.589844 5.019531 17.585938 C 5.125 17.582031 5.195312 17.578125 5.230469 17.574219 L 5.207031 17.683594 C 5.140625 17.6875 5.050781 17.695312 4.929688 17.710938 C 4.808594 17.730469 4.699219 17.742188 4.597656 17.753906 C 4.59375 17.796875 4.589844 17.871094 4.585938 17.972656 C 4.582031 18.074219 4.578125 18.191406 4.574219 18.320312 C 4.570312 18.453125 4.570312 18.585938 4.570312 18.71875 C 4.570312 18.851562 4.570312 18.96875 4.570312 19.074219 L 4.570312 19.257812 C 4.570312 19.429688 4.570312 19.609375 4.570312 19.804688 C 4.570312 19.996094 4.570312 20.179688 4.574219 20.359375 C 4.578125 20.539062 4.582031 20.6875 4.585938 20.8125 C 4.589844 20.933594 4.59375 21.007812 4.597656 21.035156 C 4.902344 21.035156 5.15625 21.007812 5.367188 20.953125 C 5.578125 20.898438 5.730469 20.839844 5.824219 20.773438 C 5.867188 20.683594 5.902344 20.582031 5.929688 20.46875 C 5.964844 20.351562 5.992188 20.257812 6.011719 20.1875 L 6.136719 20.167969 C 6.085938 20.394531 6.035156 20.648438 5.988281 20.929688 C 5.941406 21.203125 5.902344 21.515625 5.867188 21.859375 L 5.746094 21.835938 C 5.746094 21.8125 5.746094 21.757812 5.75 21.679688 C 5.757812 21.601562 5.761719 21.515625 5.765625 21.425781 C 5.769531 21.339844 5.769531 21.273438 5.769531 21.230469 C 5.746094 21.226562 5.691406 21.222656 5.597656 21.21875 C 5.507812 21.21875 5.398438 21.21875 5.269531 21.214844 C 5.144531 21.210938 5.015625 21.207031 4.882812 21.203125 C 4.753906 21.203125 4.628906 21.203125 4.515625 21.199219 C 4.40625 21.199219 4.320312 21.199219 4.269531 21.199219 C 4.179688 21.199219 4.078125 21.199219 3.960938 21.199219 C 3.84375 21.203125 3.730469 21.207031 3.625 21.210938 C 3.515625 21.210938 3.4375 21.214844 3.390625 21.21875 L 3.410156 21.113281 C 3.4375 21.113281 3.488281 21.105469 3.5625 21.097656 C 3.636719 21.09375 3.710938 21.085938 3.789062 21.074219 C 3.867188 21.0625 3.921875 21.046875 3.957031 21.039062 C 3.964844 20.980469 3.972656 20.886719 3.972656 20.746094 C 3.972656 20.609375 3.976562 20.453125 3.980469 20.28125 C 3.984375 20.109375 3.984375 19.933594 3.984375 19.761719 C 3.984375 19.589844 3.984375 19.4375 3.984375 19.308594 Z M 3.984375 19.308594 " fill-opacity="1" fill-rule="nonzero"/><path fill="#042f69" d="M 7.019531 19.429688 L 7.019531 19.195312 C 7.019531 19.082031 7.019531 18.949219 7.015625 18.800781 C 7.015625 18.652344 7.011719 18.507812 7.011719 18.363281 C 7.007812 18.21875 7 18.09375 6.996094 17.984375 C 6.992188 17.875 6.984375 17.796875 6.980469 17.753906 C 6.949219 17.746094 6.898438 17.738281 6.828125 17.730469 C 6.757812 17.722656 6.683594 17.710938 6.613281 17.703125 C 6.542969 17.691406 6.484375 17.6875 6.445312 17.683594 L 6.425781 17.574219 C 6.507812 17.578125 6.605469 17.582031 6.71875 17.585938 C 6.832031 17.589844 6.945312 17.59375 7.054688 17.597656 C 7.167969 17.597656 7.265625 17.597656 7.34375 17.597656 C 7.375 17.597656 7.445312 17.597656 7.550781 17.597656 C 7.652344 17.597656 7.773438 17.597656 7.90625 17.597656 C 8.039062 17.59375 8.175781 17.589844 8.3125 17.589844 C 8.449219 17.589844 8.566406 17.582031 8.664062 17.574219 C 8.765625 17.570312 8.828125 17.5625 8.855469 17.554688 C 8.875 17.488281 8.890625 17.410156 8.898438 17.3125 L 9.015625 17.292969 C 9.007812 17.320312 9 17.382812 8.992188 17.480469 C 8.980469 17.578125 8.972656 17.6875 8.960938 17.808594 C 8.949219 17.929688 8.941406 18.042969 8.929688 18.144531 C 8.921875 18.25 8.917969 18.320312 8.914062 18.363281 L 8.800781 18.328125 C 8.800781 18.3125 8.800781 18.285156 8.800781 18.234375 C 8.800781 18.191406 8.800781 18.140625 8.800781 18.085938 C 8.800781 18.03125 8.800781 17.988281 8.800781 17.953125 C 8.777344 17.917969 8.714844 17.886719 8.617188 17.859375 C 8.523438 17.832031 8.414062 17.808594 8.285156 17.792969 C 8.160156 17.773438 8.039062 17.761719 7.921875 17.753906 C 7.804688 17.742188 7.710938 17.738281 7.640625 17.738281 C 7.636719 17.75 7.632812 17.796875 7.628906 17.878906 C 7.625 17.957031 7.621094 18.050781 7.621094 18.164062 C 7.617188 18.277344 7.613281 18.394531 7.609375 18.519531 C 7.609375 18.640625 7.609375 18.753906 7.605469 18.859375 C 7.605469 18.964844 7.605469 19.046875 7.605469 19.109375 L 7.605469 19.214844 C 7.753906 19.214844 7.898438 19.210938 8.046875 19.203125 C 8.195312 19.195312 8.324219 19.183594 8.4375 19.167969 C 8.550781 19.15625 8.628906 19.140625 8.671875 19.128906 C 8.6875 19.09375 8.695312 19.054688 8.703125 19.015625 C 8.714844 18.976562 8.71875 18.941406 8.722656 18.90625 L 8.828125 18.898438 C 8.824219 18.921875 8.816406 18.976562 8.804688 19.0625 C 8.792969 19.148438 8.78125 19.246094 8.765625 19.355469 C 8.75 19.464844 8.738281 19.5625 8.722656 19.65625 C 8.714844 19.753906 8.703125 19.820312 8.699219 19.859375 L 8.597656 19.820312 C 8.601562 19.765625 8.601562 19.707031 8.601562 19.648438 C 8.605469 19.585938 8.609375 19.527344 8.609375 19.476562 C 8.53125 19.433594 8.398438 19.402344 8.214844 19.386719 C 8.035156 19.367188 7.828125 19.359375 7.605469 19.359375 L 7.605469 19.464844 C 7.605469 19.527344 7.605469 19.617188 7.605469 19.734375 C 7.609375 19.847656 7.609375 19.972656 7.609375 20.109375 C 7.613281 20.25 7.617188 20.386719 7.621094 20.519531 C 7.621094 20.652344 7.625 20.765625 7.628906 20.863281 C 7.632812 20.957031 7.636719 21.019531 7.640625 21.046875 C 7.898438 21.046875 8.140625 21.039062 8.367188 21.011719 C 8.589844 20.988281 8.761719 20.941406 8.878906 20.878906 C 8.90625 20.785156 8.929688 20.703125 8.945312 20.625 C 8.960938 20.542969 8.976562 20.476562 8.992188 20.421875 L 9.113281 20.394531 C 9.097656 20.429688 9.082031 20.5 9.066406 20.605469 C 9.054688 20.707031 9.035156 20.820312 9.015625 20.949219 C 9 21.078125 8.984375 21.199219 8.972656 21.3125 C 8.957031 21.425781 8.945312 21.515625 8.941406 21.582031 L 8.828125 21.5625 C 8.828125 21.492188 8.828125 21.433594 8.828125 21.382812 C 8.828125 21.332031 8.828125 21.285156 8.824219 21.246094 C 8.792969 21.242188 8.730469 21.238281 8.632812 21.230469 C 8.535156 21.226562 8.417969 21.222656 8.285156 21.21875 C 8.152344 21.214844 8.011719 21.210938 7.871094 21.210938 C 7.730469 21.207031 7.601562 21.203125 7.484375 21.199219 C 7.367188 21.199219 7.273438 21.199219 7.207031 21.199219 C 7.148438 21.199219 7.070312 21.199219 6.976562 21.199219 C 6.875 21.203125 6.777344 21.207031 6.675781 21.210938 C 6.578125 21.210938 6.492188 21.214844 6.425781 21.21875 L 6.449219 21.113281 C 6.476562 21.113281 6.523438 21.105469 6.59375 21.097656 C 6.660156 21.09375 6.730469 21.085938 6.804688 21.074219 C 6.875 21.0625 6.9375 21.046875 6.980469 21.039062 C 6.984375 21.015625 6.992188 20.945312 6.996094 20.832031 C 7 20.71875 7.007812 20.578125 7.011719 20.417969 C 7.011719 20.253906 7.015625 20.085938 7.015625 19.910156 C 7.019531 19.730469 7.019531 19.570312 7.019531 19.429688 Z M 7.019531 19.429688 " fill-opacity="1" fill-rule="nonzero"/><path fill="#042f69" d="M 13.183594 21.386719 L 12.96875 21.4375 C 12.824219 21.328125 12.675781 21.203125 12.53125 21.058594 C 12.382812 20.910156 12.238281 20.761719 12.097656 20.605469 C 11.957031 20.449219 11.828125 20.296875 11.707031 20.152344 C 11.589844 20.007812 11.488281 19.878906 11.394531 19.769531 C 11.308594 19.65625 11.242188 19.570312 11.195312 19.523438 C 11.167969 19.550781 11.125 19.609375 11.0625 19.699219 C 11.003906 19.78125 10.933594 19.882812 10.855469 20.003906 C 10.777344 20.125 10.699219 20.246094 10.621094 20.375 C 10.542969 20.5 10.46875 20.625 10.402344 20.742188 C 10.339844 20.859375 10.285156 20.957031 10.246094 21.039062 C 10.308594 21.050781 10.382812 21.066406 10.472656 21.085938 C 10.5625 21.097656 10.632812 21.109375 10.675781 21.113281 L 10.691406 21.21875 C 10.664062 21.21875 10.605469 21.21875 10.523438 21.214844 C 10.441406 21.210938 10.34375 21.207031 10.238281 21.203125 C 10.128906 21.203125 10.023438 21.199219 9.925781 21.199219 C 9.777344 21.199219 9.664062 21.203125 9.582031 21.203125 C 9.5 21.207031 9.429688 21.210938 9.363281 21.21875 L 9.398438 21.113281 C 9.449219 21.109375 9.503906 21.097656 9.5625 21.089844 C 9.621094 21.078125 9.675781 21.058594 9.722656 21.039062 C 9.753906 21.019531 9.808594 20.96875 9.878906 20.886719 C 9.953125 20.808594 10.035156 20.710938 10.125 20.59375 C 10.214844 20.480469 10.3125 20.359375 10.414062 20.230469 C 10.515625 20.105469 10.605469 19.984375 10.695312 19.863281 C 10.785156 19.742188 10.863281 19.636719 10.933594 19.546875 C 11 19.453125 11.046875 19.390625 11.074219 19.355469 C 10.980469 19.238281 10.875 19.101562 10.761719 18.945312 C 10.644531 18.789062 10.53125 18.632812 10.414062 18.472656 C 10.292969 18.3125 10.1875 18.167969 10.085938 18.039062 C 9.988281 17.914062 9.910156 17.816406 9.855469 17.753906 C 9.804688 17.734375 9.753906 17.722656 9.691406 17.710938 C 9.632812 17.703125 9.574219 17.691406 9.515625 17.683594 L 9.5 17.574219 C 9.53125 17.578125 9.613281 17.585938 9.742188 17.589844 C 9.875 17.59375 10.058594 17.597656 10.285156 17.597656 C 10.425781 17.597656 10.570312 17.59375 10.71875 17.589844 C 10.871094 17.585938 11 17.578125 11.109375 17.574219 L 11.078125 17.683594 C 10.980469 17.691406 10.894531 17.703125 10.820312 17.71875 C 10.75 17.726562 10.691406 17.738281 10.640625 17.753906 C 10.652344 17.78125 10.683594 17.832031 10.734375 17.914062 C 10.785156 17.992188 10.847656 18.082031 10.917969 18.1875 C 10.988281 18.289062 11.058594 18.394531 11.128906 18.5 C 11.199219 18.601562 11.261719 18.695312 11.320312 18.777344 C 11.378906 18.855469 11.417969 18.90625 11.441406 18.933594 C 11.480469 18.886719 11.539062 18.8125 11.613281 18.710938 C 11.6875 18.605469 11.765625 18.492188 11.84375 18.371094 C 11.925781 18.25 12.003906 18.128906 12.078125 18.019531 C 12.148438 17.910156 12.203125 17.820312 12.234375 17.753906 C 12.183594 17.734375 12.121094 17.722656 12.035156 17.707031 C 11.957031 17.695312 11.898438 17.6875 11.863281 17.683594 L 11.84375 17.574219 C 11.902344 17.578125 11.992188 17.585938 12.117188 17.589844 C 12.242188 17.59375 12.375 17.597656 12.515625 17.597656 C 12.625 17.597656 12.726562 17.59375 12.816406 17.589844 C 12.90625 17.585938 12.984375 17.578125 13.050781 17.574219 L 13.039062 17.683594 C 12.992188 17.695312 12.9375 17.710938 12.871094 17.722656 C 12.8125 17.730469 12.761719 17.742188 12.722656 17.753906 C 12.703125 17.761719 12.65625 17.804688 12.582031 17.882812 C 12.507812 17.960938 12.417969 18.058594 12.3125 18.179688 C 12.210938 18.300781 12.109375 18.421875 12.003906 18.542969 C 11.902344 18.667969 11.808594 18.78125 11.722656 18.882812 C 11.644531 18.980469 11.585938 19.054688 11.558594 19.09375 C 11.613281 19.175781 11.695312 19.292969 11.800781 19.441406 C 11.90625 19.585938 12.023438 19.75 12.152344 19.933594 C 12.277344 20.121094 12.40625 20.304688 12.535156 20.488281 C 12.667969 20.675781 12.785156 20.847656 12.898438 21.003906 C 13.011719 21.164062 13.105469 21.289062 13.183594 21.386719 Z M 13.183594 21.386719 " fill-opacity="1" fill-rule="nonzero"/><path fill="#042f69" d="M 15.394531 21.28125 C 15.222656 21.28125 15.042969 21.265625 14.859375 21.242188 C 14.675781 21.210938 14.492188 21.160156 14.308594 21.078125 C 14.132812 20.996094 13.960938 20.871094 13.800781 20.707031 C 13.613281 20.515625 13.484375 20.320312 13.414062 20.121094 C 13.34375 19.917969 13.308594 19.699219 13.308594 19.460938 C 13.308594 19.207031 13.359375 18.960938 13.457031 18.730469 C 13.5625 18.496094 13.710938 18.285156 13.90625 18.105469 C 14.101562 17.921875 14.339844 17.78125 14.617188 17.671875 C 14.898438 17.566406 15.21875 17.511719 15.570312 17.511719 C 15.84375 17.511719 16.097656 17.539062 16.320312 17.597656 C 16.550781 17.652344 16.773438 17.765625 16.996094 17.929688 C 17.199219 18.078125 17.351562 18.265625 17.460938 18.5 C 17.566406 18.730469 17.621094 18.964844 17.621094 19.203125 C 17.621094 19.523438 17.5625 19.8125 17.449219 20.066406 C 17.339844 20.316406 17.183594 20.535156 16.980469 20.714844 C 16.78125 20.898438 16.546875 21.039062 16.277344 21.132812 C 16.003906 21.230469 15.710938 21.28125 15.394531 21.28125 Z M 15.644531 21.070312 C 15.828125 21.070312 16.003906 21.03125 16.164062 20.953125 C 16.328125 20.875 16.46875 20.769531 16.59375 20.636719 C 16.71875 20.5 16.816406 20.34375 16.886719 20.160156 C 16.957031 19.980469 16.992188 19.789062 16.992188 19.582031 C 16.992188 19.308594 16.949219 19.054688 16.859375 18.824219 C 16.777344 18.597656 16.660156 18.402344 16.507812 18.234375 C 16.355469 18.070312 16.183594 17.9375 15.988281 17.847656 C 15.792969 17.753906 15.589844 17.707031 15.378906 17.707031 C 15.203125 17.707031 15.027344 17.738281 14.855469 17.796875 C 14.679688 17.859375 14.519531 17.953125 14.375 18.074219 C 14.230469 18.199219 14.113281 18.359375 14.027344 18.554688 C 13.945312 18.75 13.902344 18.980469 13.902344 19.246094 C 13.902344 19.472656 13.945312 19.695312 14.03125 19.914062 C 14.121094 20.132812 14.242188 20.332031 14.394531 20.503906 C 14.554688 20.675781 14.738281 20.8125 14.949219 20.917969 C 15.164062 21.019531 15.398438 21.070312 15.644531 21.070312 Z M 15.644531 21.070312 " fill-opacity="1" fill-rule="nonzero"/><path fill="#042f69" d="M 18.636719 19.339844 L 18.636719 19.027344 C 18.636719 18.988281 18.636719 18.921875 18.636719 18.832031 C 18.636719 18.742188 18.632812 18.640625 18.632812 18.527344 C 18.632812 18.414062 18.628906 18.300781 18.628906 18.191406 C 18.628906 18.078125 18.625 17.980469 18.617188 17.902344 C 18.613281 17.824219 18.609375 17.773438 18.605469 17.753906 C 18.578125 17.746094 18.527344 17.738281 18.457031 17.730469 C 18.382812 17.722656 18.304688 17.714844 18.230469 17.707031 C 18.152344 17.699219 18.09375 17.695312 18.058594 17.691406 L 18.042969 17.585938 L 19.15625 17.582031 C 19.320312 17.582031 19.492188 17.585938 19.671875 17.589844 C 19.847656 17.59375 20.019531 17.605469 20.183594 17.625 C 20.347656 17.644531 20.488281 17.675781 20.609375 17.722656 C 20.746094 17.777344 20.851562 17.851562 20.929688 17.953125 C 21.011719 18.050781 21.050781 18.171875 21.050781 18.3125 C 21.050781 18.417969 21.015625 18.53125 20.949219 18.65625 C 20.886719 18.78125 20.800781 18.898438 20.6875 19.007812 C 20.582031 19.117188 20.460938 19.207031 20.324219 19.285156 C 20.335938 19.3125 20.375 19.378906 20.441406 19.492188 C 20.507812 19.601562 20.59375 19.734375 20.695312 19.894531 C 20.796875 20.054688 20.910156 20.222656 21.03125 20.402344 C 21.15625 20.582031 21.277344 20.753906 21.398438 20.917969 C 21.523438 21.078125 21.640625 21.214844 21.746094 21.332031 L 21.519531 21.367188 C 21.460938 21.339844 21.378906 21.277344 21.269531 21.179688 C 21.160156 21.082031 21.039062 20.96875 20.90625 20.835938 C 20.773438 20.703125 20.640625 20.5625 20.507812 20.417969 C 20.375 20.269531 20.25 20.132812 20.132812 20 C 20.015625 19.871094 19.917969 19.761719 19.84375 19.671875 C 19.765625 19.582031 19.71875 19.527344 19.707031 19.511719 C 19.609375 19.519531 19.515625 19.523438 19.417969 19.53125 C 19.324219 19.539062 19.253906 19.542969 19.210938 19.542969 L 19.210938 19.671875 C 19.210938 19.757812 19.210938 19.863281 19.210938 19.996094 C 19.214844 20.125 19.21875 20.257812 19.21875 20.394531 C 19.21875 20.53125 19.222656 20.660156 19.226562 20.777344 C 19.230469 20.894531 19.234375 20.980469 19.238281 21.039062 C 19.265625 21.046875 19.316406 21.054688 19.386719 21.0625 C 19.457031 21.074219 19.53125 21.085938 19.605469 21.09375 C 19.683594 21.105469 19.738281 21.113281 19.777344 21.113281 L 19.800781 21.21875 C 19.765625 21.214844 19.714844 21.210938 19.640625 21.210938 C 19.566406 21.210938 19.484375 21.207031 19.394531 21.203125 C 19.304688 21.203125 19.21875 21.203125 19.132812 21.199219 C 19.042969 21.199219 18.972656 21.199219 18.914062 21.199219 C 18.859375 21.199219 18.789062 21.199219 18.703125 21.199219 C 18.617188 21.203125 18.53125 21.203125 18.441406 21.203125 C 18.351562 21.207031 18.265625 21.210938 18.195312 21.210938 C 18.125 21.210938 18.074219 21.214844 18.042969 21.21875 L 18.0625 21.113281 C 18.085938 21.113281 18.128906 21.105469 18.199219 21.097656 C 18.269531 21.09375 18.34375 21.085938 18.421875 21.074219 C 18.496094 21.0625 18.558594 21.046875 18.605469 21.039062 C 18.613281 21.003906 18.617188 20.921875 18.621094 20.792969 C 18.625 20.660156 18.628906 20.507812 18.632812 20.339844 C 18.632812 20.164062 18.636719 19.988281 18.636719 19.808594 C 18.636719 19.632812 18.636719 19.476562 18.636719 19.339844 Z M 19.210938 19.222656 L 19.210938 19.378906 C 19.304688 19.378906 19.40625 19.375 19.515625 19.367188 C 19.621094 19.351562 19.730469 19.324219 19.84375 19.285156 C 19.914062 19.257812 20 19.210938 20.089844 19.148438 C 20.179688 19.082031 20.257812 18.992188 20.324219 18.875 C 20.390625 18.761719 20.425781 18.621094 20.425781 18.453125 C 20.425781 18.347656 20.390625 18.234375 20.316406 18.121094 C 20.242188 18.007812 20.117188 17.914062 19.941406 17.839844 C 19.769531 17.761719 19.535156 17.722656 19.238281 17.722656 C 19.234375 17.773438 19.230469 17.863281 19.226562 17.988281 C 19.222656 18.117188 19.21875 18.261719 19.21875 18.417969 C 19.21875 18.574219 19.214844 18.722656 19.210938 18.867188 C 19.210938 19.011719 19.210938 19.132812 19.210938 19.222656 Z M 19.210938 19.222656 " fill-opacity="1" fill-rule="nonzero"/><path fill="#042f69" d="M 23.082031 19.089844 L 23.082031 19.40625 C 23.082031 19.574219 23.082031 19.75 23.082031 19.929688 C 23.082031 20.109375 23.082031 20.277344 23.085938 20.4375 C 23.089844 20.597656 23.089844 20.730469 23.09375 20.835938 C 23.097656 20.945312 23.101562 21.011719 23.105469 21.039062 C 23.148438 21.046875 23.207031 21.0625 23.277344 21.074219 C 23.351562 21.085938 23.421875 21.09375 23.488281 21.097656 C 23.558594 21.105469 23.613281 21.113281 23.648438 21.113281 L 23.675781 21.21875 C 23.636719 21.214844 23.558594 21.210938 23.441406 21.210938 C 23.332031 21.207031 23.207031 21.203125 23.070312 21.199219 C 22.933594 21.199219 22.808594 21.199219 22.703125 21.199219 C 22.644531 21.199219 22.5625 21.199219 22.457031 21.199219 C 22.347656 21.203125 22.238281 21.207031 22.132812 21.210938 C 22.027344 21.210938 21.953125 21.214844 21.902344 21.21875 L 21.921875 21.113281 C 21.953125 21.113281 22 21.105469 22.074219 21.09375 C 22.144531 21.085938 22.222656 21.074219 22.300781 21.0625 C 22.375 21.054688 22.429688 21.046875 22.464844 21.039062 C 22.476562 20.984375 22.480469 20.890625 22.480469 20.761719 C 22.484375 20.628906 22.488281 20.480469 22.492188 20.3125 C 22.492188 20.140625 22.496094 19.972656 22.496094 19.808594 C 22.496094 19.640625 22.496094 19.492188 22.496094 19.367188 L 22.496094 19.0625 C 22.496094 19.03125 22.496094 18.96875 22.496094 18.882812 C 22.496094 18.792969 22.492188 18.695312 22.492188 18.578125 C 22.492188 18.464844 22.488281 18.351562 22.484375 18.242188 C 22.484375 18.128906 22.480469 18.027344 22.476562 17.9375 C 22.472656 17.847656 22.46875 17.785156 22.464844 17.753906 C 22.429688 17.746094 22.378906 17.738281 22.304688 17.726562 C 22.230469 17.71875 22.15625 17.710938 22.082031 17.703125 C 22.011719 17.691406 21.957031 17.6875 21.925781 17.683594 L 21.902344 17.574219 C 21.933594 17.578125 22.003906 17.582031 22.109375 17.585938 C 22.210938 17.589844 22.332031 17.59375 22.46875 17.597656 C 22.609375 17.597656 22.742188 17.597656 22.878906 17.597656 C 22.96875 17.597656 23.070312 17.597656 23.179688 17.597656 C 23.292969 17.59375 23.394531 17.589844 23.488281 17.585938 C 23.582031 17.582031 23.644531 17.578125 23.675781 17.574219 L 23.648438 17.683594 C 23.597656 17.6875 23.515625 17.695312 23.40625 17.710938 C 23.300781 17.730469 23.199219 17.742188 23.105469 17.753906 C 23.097656 17.785156 23.09375 17.871094 23.089844 18.003906 C 23.085938 18.136719 23.082031 18.296875 23.082031 18.488281 C 23.082031 18.675781 23.082031 18.875 23.082031 19.089844 Z M 23.082031 19.089844 " fill-opacity="1" fill-rule="nonzero"/><path fill="#042f69" d="M 26.09375 21.21875 L 26.117188 21.113281 C 26.210938 21.109375 26.296875 21.097656 26.386719 21.085938 C 26.476562 21.070312 26.5625 21.054688 26.640625 21.039062 C 26.625 20.984375 26.597656 20.90625 26.558594 20.796875 C 26.519531 20.691406 26.476562 20.570312 26.429688 20.4375 C 26.386719 20.308594 26.34375 20.179688 26.300781 20.050781 C 26.253906 19.921875 26.214844 19.8125 26.179688 19.71875 C 26.140625 19.625 26.113281 19.5625 26.097656 19.53125 C 26.054688 19.53125 25.976562 19.535156 25.867188 19.535156 C 25.757812 19.539062 25.640625 19.546875 25.507812 19.550781 C 25.378906 19.558594 25.257812 19.566406 25.144531 19.578125 C 25.039062 19.585938 24.960938 19.589844 24.910156 19.597656 C 24.902344 19.609375 24.886719 19.65625 24.863281 19.734375 C 24.84375 19.8125 24.816406 19.90625 24.78125 20.019531 C 24.753906 20.136719 24.71875 20.257812 24.6875 20.382812 C 24.65625 20.507812 24.628906 20.628906 24.601562 20.746094 C 24.578125 20.863281 24.5625 20.960938 24.550781 21.039062 C 24.613281 21.054688 24.683594 21.070312 24.761719 21.085938 C 24.84375 21.097656 24.921875 21.109375 24.996094 21.113281 L 25.015625 21.21875 C 24.960938 21.214844 24.882812 21.210938 24.777344 21.210938 C 24.671875 21.207031 24.570312 21.203125 24.464844 21.199219 C 24.363281 21.199219 24.285156 21.199219 24.234375 21.199219 C 24.1875 21.199219 24.128906 21.199219 24.046875 21.199219 C 23.96875 21.203125 23.894531 21.207031 23.816406 21.210938 C 23.738281 21.210938 23.679688 21.214844 23.636719 21.21875 L 23.652344 21.113281 C 23.800781 21.101562 23.949219 21.078125 24.097656 21.039062 C 24.125 20.996094 24.164062 20.90625 24.222656 20.773438 C 24.28125 20.632812 24.34375 20.472656 24.417969 20.28125 C 24.492188 20.089844 24.570312 19.886719 24.65625 19.671875 C 24.738281 19.453125 24.824219 19.238281 24.902344 19.023438 C 24.984375 18.808594 25.058594 18.609375 25.125 18.429688 C 25.195312 18.246094 25.253906 18.09375 25.296875 17.972656 C 25.339844 17.851562 25.367188 17.773438 25.378906 17.746094 C 25.324219 17.730469 25.257812 17.71875 25.179688 17.707031 C 25.101562 17.695312 25.03125 17.6875 24.96875 17.683594 L 24.964844 17.574219 C 25.015625 17.578125 25.089844 17.582031 25.1875 17.585938 C 25.277344 17.589844 25.371094 17.59375 25.457031 17.597656 C 25.546875 17.597656 25.605469 17.597656 25.632812 17.597656 C 25.691406 17.597656 25.761719 17.597656 25.839844 17.597656 C 25.925781 17.59375 26.011719 17.589844 26.097656 17.589844 C 26.1875 17.589844 26.269531 17.585938 26.34375 17.585938 C 26.421875 17.582031 26.480469 17.578125 26.515625 17.574219 L 26.5 17.683594 C 26.4375 17.6875 26.371094 17.695312 26.300781 17.707031 C 26.230469 17.71875 26.167969 17.730469 26.109375 17.746094 C 26.125 17.804688 26.152344 17.894531 26.1875 18.015625 C 26.230469 18.132812 26.277344 18.265625 26.328125 18.417969 C 26.382812 18.570312 26.4375 18.726562 26.492188 18.886719 C 26.546875 19.046875 26.601562 19.191406 26.652344 19.324219 C 26.6875 19.425781 26.734375 19.550781 26.789062 19.699219 C 26.839844 19.847656 26.902344 20.003906 26.964844 20.167969 C 27.027344 20.328125 27.09375 20.488281 27.160156 20.640625 C 27.226562 20.796875 27.292969 20.929688 27.351562 21.039062 C 27.425781 21.050781 27.5 21.066406 27.574219 21.078125 C 27.652344 21.09375 27.730469 21.105469 27.808594 21.113281 L 27.820312 21.21875 C 27.808594 21.214844 27.769531 21.210938 27.699219 21.210938 C 27.636719 21.210938 27.5625 21.207031 27.472656 21.203125 C 27.386719 21.203125 27.296875 21.203125 27.203125 21.199219 C 27.109375 21.199219 27.03125 21.199219 26.964844 21.199219 C 26.925781 21.199219 26.871094 21.199219 26.789062 21.199219 C 26.707031 21.203125 26.621094 21.203125 26.527344 21.203125 C 26.433594 21.207031 26.34375 21.210938 26.265625 21.210938 C 26.1875 21.210938 26.128906 21.214844 26.09375 21.21875 Z M 26.0625 19.375 C 26.035156 19.292969 25.996094 19.179688 25.945312 19.039062 C 25.898438 18.894531 25.84375 18.742188 25.789062 18.585938 C 25.738281 18.425781 25.6875 18.28125 25.640625 18.144531 C 25.589844 18.011719 25.558594 17.910156 25.539062 17.839844 L 25.527344 17.839844 C 25.488281 17.949219 25.4375 18.082031 25.382812 18.234375 C 25.328125 18.390625 25.273438 18.546875 25.214844 18.703125 C 25.15625 18.859375 25.109375 18.996094 25.066406 19.117188 C 25.023438 19.238281 24.996094 19.316406 24.984375 19.355469 Z M 26.0625 19.375 " fill-opacity="1" fill-rule="nonzero"/></svg>